G04 #@! TF.GenerationSoftware,KiCad,Pcbnew,5.0.2+dfsg1-1*
G04 #@! TF.CreationDate,2020-09-04T22:52:39+03:00*
G04 #@! TF.ProjectId,LDriver,4c447269-7665-4722-9e6b-696361645f70,rev?*
G04 #@! TF.SameCoordinates,Original*
G04 #@! TF.FileFunction,Legend,Top*
G04 #@! TF.FilePolarity,Positive*
%FSLAX46Y46*%
G04 Gerber Fmt 4.6, Leading zero omitted, Abs format (unit mm)*
G04 Created by KiCad (PCBNEW 5.0.2+dfsg1-1) date пт, 04-вер-2020 22:52:39 +0300*
%MOMM*%
%LPD*%
G01*
G04 APERTURE LIST*
%ADD10C,0.200000*%
%ADD11C,0.120000*%
%ADD12C,0.100000*%
%ADD13C,0.150000*%
%ADD14C,0.254000*%
G04 APERTURE END LIST*
D10*
X155345238Y-115172380D02*
X154869047Y-115172380D01*
X154869047Y-114172380D01*
X155678571Y-115172380D02*
X155678571Y-114172380D01*
X155916666Y-114172380D01*
X156059523Y-114220000D01*
X156154761Y-114315238D01*
X156202380Y-114410476D01*
X156250000Y-114600952D01*
X156250000Y-114743809D01*
X156202380Y-114934285D01*
X156154761Y-115029523D01*
X156059523Y-115124761D01*
X155916666Y-115172380D01*
X155678571Y-115172380D01*
X156678571Y-114791428D02*
X157440476Y-114791428D01*
X157916666Y-115172380D02*
X157916666Y-114172380D01*
X158297619Y-114172380D01*
X158392857Y-114220000D01*
X158440476Y-114267619D01*
X158488095Y-114362857D01*
X158488095Y-114505714D01*
X158440476Y-114600952D01*
X158392857Y-114648571D01*
X158297619Y-114696190D01*
X157916666Y-114696190D01*
X159059523Y-115172380D02*
X158964285Y-115124761D01*
X158916666Y-115077142D01*
X158869047Y-114981904D01*
X158869047Y-114696190D01*
X158916666Y-114600952D01*
X158964285Y-114553333D01*
X159059523Y-114505714D01*
X159202380Y-114505714D01*
X159297619Y-114553333D01*
X159345238Y-114600952D01*
X159392857Y-114696190D01*
X159392857Y-114981904D01*
X159345238Y-115077142D01*
X159297619Y-115124761D01*
X159202380Y-115172380D01*
X159059523Y-115172380D01*
X159726190Y-114505714D02*
X159916666Y-115172380D01*
X160107142Y-114696190D01*
X160297619Y-115172380D01*
X160488095Y-114505714D01*
X161250000Y-115124761D02*
X161154761Y-115172380D01*
X160964285Y-115172380D01*
X160869047Y-115124761D01*
X160821428Y-115029523D01*
X160821428Y-114648571D01*
X160869047Y-114553333D01*
X160964285Y-114505714D01*
X161154761Y-114505714D01*
X161250000Y-114553333D01*
X161297619Y-114648571D01*
X161297619Y-114743809D01*
X160821428Y-114839047D01*
X161726190Y-115172380D02*
X161726190Y-114505714D01*
X161726190Y-114696190D02*
X161773809Y-114600952D01*
X161821428Y-114553333D01*
X161916666Y-114505714D01*
X162011904Y-114505714D01*
X154750000Y-115872380D02*
X154750000Y-116681904D01*
X154797619Y-116777142D01*
X154845238Y-116824761D01*
X154940476Y-116872380D01*
X155130952Y-116872380D01*
X155226190Y-116824761D01*
X155273809Y-116777142D01*
X155321428Y-116681904D01*
X155321428Y-115872380D01*
X155797619Y-116205714D02*
X155797619Y-117205714D01*
X155797619Y-116253333D02*
X155892857Y-116205714D01*
X156083333Y-116205714D01*
X156178571Y-116253333D01*
X156226190Y-116300952D01*
X156273809Y-116396190D01*
X156273809Y-116681904D01*
X156226190Y-116777142D01*
X156178571Y-116824761D01*
X156083333Y-116872380D01*
X155892857Y-116872380D01*
X155797619Y-116824761D01*
X156702380Y-116205714D02*
X156702380Y-117205714D01*
X156702380Y-116253333D02*
X156797619Y-116205714D01*
X156988095Y-116205714D01*
X157083333Y-116253333D01*
X157130952Y-116300952D01*
X157178571Y-116396190D01*
X157178571Y-116681904D01*
X157130952Y-116777142D01*
X157083333Y-116824761D01*
X156988095Y-116872380D01*
X156797619Y-116872380D01*
X156702380Y-116824761D01*
X157988095Y-116824761D02*
X157892857Y-116872380D01*
X157702380Y-116872380D01*
X157607142Y-116824761D01*
X157559523Y-116729523D01*
X157559523Y-116348571D01*
X157607142Y-116253333D01*
X157702380Y-116205714D01*
X157892857Y-116205714D01*
X157988095Y-116253333D01*
X158035714Y-116348571D01*
X158035714Y-116443809D01*
X157559523Y-116539047D01*
X158464285Y-116872380D02*
X158464285Y-116205714D01*
X158464285Y-116396190D02*
X158511904Y-116300952D01*
X158559523Y-116253333D01*
X158654761Y-116205714D01*
X158750000Y-116205714D01*
X159988095Y-116872380D02*
X159892857Y-116824761D01*
X159845238Y-116729523D01*
X159845238Y-115872380D01*
X160369047Y-116872380D02*
X160369047Y-116205714D01*
X160369047Y-115872380D02*
X160321428Y-115920000D01*
X160369047Y-115967619D01*
X160416666Y-115920000D01*
X160369047Y-115872380D01*
X160369047Y-115967619D01*
X160845238Y-116872380D02*
X160845238Y-116205714D01*
X160845238Y-116300952D02*
X160892857Y-116253333D01*
X160988095Y-116205714D01*
X161130952Y-116205714D01*
X161226190Y-116253333D01*
X161273809Y-116348571D01*
X161273809Y-116872380D01*
X161273809Y-116348571D02*
X161321428Y-116253333D01*
X161416666Y-116205714D01*
X161559523Y-116205714D01*
X161654761Y-116253333D01*
X161702380Y-116348571D01*
X161702380Y-116872380D01*
X162178571Y-116872380D02*
X162178571Y-116205714D01*
X162178571Y-115872380D02*
X162130952Y-115920000D01*
X162178571Y-115967619D01*
X162226190Y-115920000D01*
X162178571Y-115872380D01*
X162178571Y-115967619D01*
X162511904Y-116205714D02*
X162892857Y-116205714D01*
X162654761Y-115872380D02*
X162654761Y-116729523D01*
X162702380Y-116824761D01*
X162797619Y-116872380D01*
X162892857Y-116872380D01*
X175665238Y-115172380D02*
X175189047Y-115172380D01*
X175189047Y-114172380D01*
X175998571Y-115172380D02*
X175998571Y-114172380D01*
X176236666Y-114172380D01*
X176379523Y-114220000D01*
X176474761Y-114315238D01*
X176522380Y-114410476D01*
X176570000Y-114600952D01*
X176570000Y-114743809D01*
X176522380Y-114934285D01*
X176474761Y-115029523D01*
X176379523Y-115124761D01*
X176236666Y-115172380D01*
X175998571Y-115172380D01*
X176998571Y-114791428D02*
X177760476Y-114791428D01*
X178236666Y-115172380D02*
X178236666Y-114172380D01*
X178617619Y-114172380D01*
X178712857Y-114220000D01*
X178760476Y-114267619D01*
X178808095Y-114362857D01*
X178808095Y-114505714D01*
X178760476Y-114600952D01*
X178712857Y-114648571D01*
X178617619Y-114696190D01*
X178236666Y-114696190D01*
X179379523Y-115172380D02*
X179284285Y-115124761D01*
X179236666Y-115077142D01*
X179189047Y-114981904D01*
X179189047Y-114696190D01*
X179236666Y-114600952D01*
X179284285Y-114553333D01*
X179379523Y-114505714D01*
X179522380Y-114505714D01*
X179617619Y-114553333D01*
X179665238Y-114600952D01*
X179712857Y-114696190D01*
X179712857Y-114981904D01*
X179665238Y-115077142D01*
X179617619Y-115124761D01*
X179522380Y-115172380D01*
X179379523Y-115172380D01*
X180046190Y-114505714D02*
X180236666Y-115172380D01*
X180427142Y-114696190D01*
X180617619Y-115172380D01*
X180808095Y-114505714D01*
X181570000Y-115124761D02*
X181474761Y-115172380D01*
X181284285Y-115172380D01*
X181189047Y-115124761D01*
X181141428Y-115029523D01*
X181141428Y-114648571D01*
X181189047Y-114553333D01*
X181284285Y-114505714D01*
X181474761Y-114505714D01*
X181570000Y-114553333D01*
X181617619Y-114648571D01*
X181617619Y-114743809D01*
X181141428Y-114839047D01*
X182046190Y-115172380D02*
X182046190Y-114505714D01*
X182046190Y-114696190D02*
X182093809Y-114600952D01*
X182141428Y-114553333D01*
X182236666Y-114505714D01*
X182331904Y-114505714D01*
X175593809Y-116872380D02*
X175117619Y-116872380D01*
X175117619Y-115872380D01*
X176070000Y-116872380D02*
X175974761Y-116824761D01*
X175927142Y-116777142D01*
X175879523Y-116681904D01*
X175879523Y-116396190D01*
X175927142Y-116300952D01*
X175974761Y-116253333D01*
X176070000Y-116205714D01*
X176212857Y-116205714D01*
X176308095Y-116253333D01*
X176355714Y-116300952D01*
X176403333Y-116396190D01*
X176403333Y-116681904D01*
X176355714Y-116777142D01*
X176308095Y-116824761D01*
X176212857Y-116872380D01*
X176070000Y-116872380D01*
X176736666Y-116205714D02*
X176927142Y-116872380D01*
X177117619Y-116396190D01*
X177308095Y-116872380D01*
X177498571Y-116205714D01*
X178260476Y-116824761D02*
X178165238Y-116872380D01*
X177974761Y-116872380D01*
X177879523Y-116824761D01*
X177831904Y-116729523D01*
X177831904Y-116348571D01*
X177879523Y-116253333D01*
X177974761Y-116205714D01*
X178165238Y-116205714D01*
X178260476Y-116253333D01*
X178308095Y-116348571D01*
X178308095Y-116443809D01*
X177831904Y-116539047D01*
X178736666Y-116872380D02*
X178736666Y-116205714D01*
X178736666Y-116396190D02*
X178784285Y-116300952D01*
X178831904Y-116253333D01*
X178927142Y-116205714D01*
X179022380Y-116205714D01*
X180260476Y-116872380D02*
X180165238Y-116824761D01*
X180117619Y-116729523D01*
X180117619Y-115872380D01*
X180641428Y-116872380D02*
X180641428Y-116205714D01*
X180641428Y-115872380D02*
X180593809Y-115920000D01*
X180641428Y-115967619D01*
X180689047Y-115920000D01*
X180641428Y-115872380D01*
X180641428Y-115967619D01*
X181117619Y-116872380D02*
X181117619Y-116205714D01*
X181117619Y-116300952D02*
X181165238Y-116253333D01*
X181260476Y-116205714D01*
X181403333Y-116205714D01*
X181498571Y-116253333D01*
X181546190Y-116348571D01*
X181546190Y-116872380D01*
X181546190Y-116348571D02*
X181593809Y-116253333D01*
X181689047Y-116205714D01*
X181831904Y-116205714D01*
X181927142Y-116253333D01*
X181974761Y-116348571D01*
X181974761Y-116872380D01*
X182450952Y-116872380D02*
X182450952Y-116205714D01*
X182450952Y-115872380D02*
X182403333Y-115920000D01*
X182450952Y-115967619D01*
X182498571Y-115920000D01*
X182450952Y-115872380D01*
X182450952Y-115967619D01*
X182784285Y-116205714D02*
X183165238Y-116205714D01*
X182927142Y-115872380D02*
X182927142Y-116729523D01*
X182974761Y-116824761D01*
X183070000Y-116872380D01*
X183165238Y-116872380D01*
D11*
G04 #@! TO.C,R7*
X178970000Y-90900000D02*
X179300000Y-90900000D01*
X178970000Y-84360000D02*
X178970000Y-90900000D01*
X179300000Y-84360000D02*
X178970000Y-84360000D01*
X181710000Y-90900000D02*
X181380000Y-90900000D01*
X181710000Y-84360000D02*
X181710000Y-90900000D01*
X181380000Y-84360000D02*
X181710000Y-84360000D01*
G04 #@! TO.C,D2*
X169611522Y-111191522D02*
G75*
G03X171450000Y-115630000I1838478J-1838478D01*
G01*
X173288478Y-111191522D02*
G75*
G02X171450000Y-115630000I-1838478J-1838478D01*
G01*
X173250000Y-111180000D02*
X169650000Y-111180000D01*
D10*
G04 #@! TO.C,J2*
X151225000Y-124865000D02*
X147320000Y-124865000D01*
X151225000Y-113695000D02*
X151225000Y-124865000D01*
X143715000Y-113695000D02*
X151225000Y-113695000D01*
X143715000Y-121920000D02*
X143715000Y-113695000D01*
D11*
G04 #@! TO.C,C1*
X132915000Y-90230354D02*
X131915000Y-90230354D01*
X132415000Y-89730354D02*
X132415000Y-90730354D01*
X130139000Y-100291000D02*
X128941000Y-100291000D01*
X130402000Y-100251000D02*
X128678000Y-100251000D01*
X130602000Y-100211000D02*
X128478000Y-100211000D01*
X130770000Y-100171000D02*
X128310000Y-100171000D01*
X130918000Y-100131000D02*
X128162000Y-100131000D01*
X131050000Y-100091000D02*
X128030000Y-100091000D01*
X131170000Y-100051000D02*
X127910000Y-100051000D01*
X131282000Y-100011000D02*
X127798000Y-100011000D01*
X131386000Y-99971000D02*
X127694000Y-99971000D01*
X131484000Y-99931000D02*
X127596000Y-99931000D01*
X131577000Y-99891000D02*
X127503000Y-99891000D01*
X131665000Y-99851000D02*
X127415000Y-99851000D01*
X131749000Y-99811000D02*
X127331000Y-99811000D01*
X131829000Y-99771000D02*
X127251000Y-99771000D01*
X131905000Y-99731000D02*
X127175000Y-99731000D01*
X131979000Y-99691000D02*
X127101000Y-99691000D01*
X132050000Y-99651000D02*
X127030000Y-99651000D01*
X132119000Y-99611000D02*
X126961000Y-99611000D01*
X132185000Y-99571000D02*
X126895000Y-99571000D01*
X132249000Y-99531000D02*
X126831000Y-99531000D01*
X132310000Y-99491000D02*
X126770000Y-99491000D01*
X132370000Y-99451000D02*
X126710000Y-99451000D01*
X132429000Y-99411000D02*
X126651000Y-99411000D01*
X132485000Y-99371000D02*
X126595000Y-99371000D01*
X132540000Y-99331000D02*
X126540000Y-99331000D01*
X132594000Y-99291000D02*
X126486000Y-99291000D01*
X132646000Y-99251000D02*
X126434000Y-99251000D01*
X132696000Y-99211000D02*
X126384000Y-99211000D01*
X132746000Y-99171000D02*
X126334000Y-99171000D01*
X132794000Y-99131000D02*
X126286000Y-99131000D01*
X132841000Y-99091000D02*
X126239000Y-99091000D01*
X132887000Y-99051000D02*
X126193000Y-99051000D01*
X132932000Y-99011000D02*
X126148000Y-99011000D01*
X132976000Y-98971000D02*
X126104000Y-98971000D01*
X128299000Y-98931000D02*
X126062000Y-98931000D01*
X133018000Y-98931000D02*
X130781000Y-98931000D01*
X128299000Y-98891000D02*
X126020000Y-98891000D01*
X133060000Y-98891000D02*
X130781000Y-98891000D01*
X128299000Y-98851000D02*
X125979000Y-98851000D01*
X133101000Y-98851000D02*
X130781000Y-98851000D01*
X128299000Y-98811000D02*
X125939000Y-98811000D01*
X133141000Y-98811000D02*
X130781000Y-98811000D01*
X128299000Y-98771000D02*
X125900000Y-98771000D01*
X133180000Y-98771000D02*
X130781000Y-98771000D01*
X128299000Y-98731000D02*
X125861000Y-98731000D01*
X133219000Y-98731000D02*
X130781000Y-98731000D01*
X128299000Y-98691000D02*
X125824000Y-98691000D01*
X133256000Y-98691000D02*
X130781000Y-98691000D01*
X128299000Y-98651000D02*
X125787000Y-98651000D01*
X133293000Y-98651000D02*
X130781000Y-98651000D01*
X128299000Y-98611000D02*
X125751000Y-98611000D01*
X133329000Y-98611000D02*
X130781000Y-98611000D01*
X128299000Y-98571000D02*
X125716000Y-98571000D01*
X133364000Y-98571000D02*
X130781000Y-98571000D01*
X128299000Y-98531000D02*
X125682000Y-98531000D01*
X133398000Y-98531000D02*
X130781000Y-98531000D01*
X128299000Y-98491000D02*
X125648000Y-98491000D01*
X133432000Y-98491000D02*
X130781000Y-98491000D01*
X128299000Y-98451000D02*
X125615000Y-98451000D01*
X133465000Y-98451000D02*
X130781000Y-98451000D01*
X128299000Y-98411000D02*
X125583000Y-98411000D01*
X133497000Y-98411000D02*
X130781000Y-98411000D01*
X128299000Y-98371000D02*
X125551000Y-98371000D01*
X133529000Y-98371000D02*
X130781000Y-98371000D01*
X128299000Y-98331000D02*
X125520000Y-98331000D01*
X133560000Y-98331000D02*
X130781000Y-98331000D01*
X128299000Y-98291000D02*
X125490000Y-98291000D01*
X133590000Y-98291000D02*
X130781000Y-98291000D01*
X128299000Y-98251000D02*
X125460000Y-98251000D01*
X133620000Y-98251000D02*
X130781000Y-98251000D01*
X128299000Y-98211000D02*
X125430000Y-98211000D01*
X133650000Y-98211000D02*
X130781000Y-98211000D01*
X128299000Y-98171000D02*
X125402000Y-98171000D01*
X133678000Y-98171000D02*
X130781000Y-98171000D01*
X128299000Y-98131000D02*
X125374000Y-98131000D01*
X133706000Y-98131000D02*
X130781000Y-98131000D01*
X128299000Y-98091000D02*
X125346000Y-98091000D01*
X133734000Y-98091000D02*
X130781000Y-98091000D01*
X128299000Y-98051000D02*
X125319000Y-98051000D01*
X133761000Y-98051000D02*
X130781000Y-98051000D01*
X128299000Y-98011000D02*
X125293000Y-98011000D01*
X133787000Y-98011000D02*
X130781000Y-98011000D01*
X128299000Y-97971000D02*
X125267000Y-97971000D01*
X133813000Y-97971000D02*
X130781000Y-97971000D01*
X128299000Y-97931000D02*
X125242000Y-97931000D01*
X133838000Y-97931000D02*
X130781000Y-97931000D01*
X128299000Y-97891000D02*
X125217000Y-97891000D01*
X133863000Y-97891000D02*
X130781000Y-97891000D01*
X128299000Y-97851000D02*
X125193000Y-97851000D01*
X133887000Y-97851000D02*
X130781000Y-97851000D01*
X128299000Y-97811000D02*
X125169000Y-97811000D01*
X133911000Y-97811000D02*
X130781000Y-97811000D01*
X128299000Y-97771000D02*
X125145000Y-97771000D01*
X133935000Y-97771000D02*
X130781000Y-97771000D01*
X128299000Y-97731000D02*
X125123000Y-97731000D01*
X133957000Y-97731000D02*
X130781000Y-97731000D01*
X128299000Y-97691000D02*
X125100000Y-97691000D01*
X133980000Y-97691000D02*
X130781000Y-97691000D01*
X128299000Y-97651000D02*
X125078000Y-97651000D01*
X134002000Y-97651000D02*
X130781000Y-97651000D01*
X128299000Y-97611000D02*
X125057000Y-97611000D01*
X134023000Y-97611000D02*
X130781000Y-97611000D01*
X128299000Y-97571000D02*
X125036000Y-97571000D01*
X134044000Y-97571000D02*
X130781000Y-97571000D01*
X128299000Y-97531000D02*
X125015000Y-97531000D01*
X134065000Y-97531000D02*
X130781000Y-97531000D01*
X128299000Y-97491000D02*
X124995000Y-97491000D01*
X134085000Y-97491000D02*
X130781000Y-97491000D01*
X128299000Y-97451000D02*
X124976000Y-97451000D01*
X134104000Y-97451000D02*
X130781000Y-97451000D01*
X128299000Y-97411000D02*
X124956000Y-97411000D01*
X134124000Y-97411000D02*
X130781000Y-97411000D01*
X128299000Y-97371000D02*
X124937000Y-97371000D01*
X134143000Y-97371000D02*
X130781000Y-97371000D01*
X128299000Y-97331000D02*
X124919000Y-97331000D01*
X134161000Y-97331000D02*
X130781000Y-97331000D01*
X128299000Y-97291000D02*
X124901000Y-97291000D01*
X134179000Y-97291000D02*
X130781000Y-97291000D01*
X128299000Y-97251000D02*
X124883000Y-97251000D01*
X134197000Y-97251000D02*
X130781000Y-97251000D01*
X128299000Y-97211000D02*
X124866000Y-97211000D01*
X134214000Y-97211000D02*
X130781000Y-97211000D01*
X128299000Y-97171000D02*
X124850000Y-97171000D01*
X134230000Y-97171000D02*
X130781000Y-97171000D01*
X128299000Y-97131000D02*
X124833000Y-97131000D01*
X134247000Y-97131000D02*
X130781000Y-97131000D01*
X128299000Y-97091000D02*
X124817000Y-97091000D01*
X134263000Y-97091000D02*
X130781000Y-97091000D01*
X128299000Y-97051000D02*
X124802000Y-97051000D01*
X134278000Y-97051000D02*
X130781000Y-97051000D01*
X128299000Y-97011000D02*
X124786000Y-97011000D01*
X134294000Y-97011000D02*
X130781000Y-97011000D01*
X128299000Y-96971000D02*
X124772000Y-96971000D01*
X134308000Y-96971000D02*
X130781000Y-96971000D01*
X128299000Y-96931000D02*
X124757000Y-96931000D01*
X134323000Y-96931000D02*
X130781000Y-96931000D01*
X128299000Y-96891000D02*
X124743000Y-96891000D01*
X134337000Y-96891000D02*
X130781000Y-96891000D01*
X128299000Y-96851000D02*
X124729000Y-96851000D01*
X134351000Y-96851000D02*
X130781000Y-96851000D01*
X128299000Y-96811000D02*
X124716000Y-96811000D01*
X134364000Y-96811000D02*
X130781000Y-96811000D01*
X128299000Y-96771000D02*
X124703000Y-96771000D01*
X134377000Y-96771000D02*
X130781000Y-96771000D01*
X128299000Y-96731000D02*
X124690000Y-96731000D01*
X134390000Y-96731000D02*
X130781000Y-96731000D01*
X128299000Y-96691000D02*
X124678000Y-96691000D01*
X134402000Y-96691000D02*
X130781000Y-96691000D01*
X128299000Y-96651000D02*
X124666000Y-96651000D01*
X134414000Y-96651000D02*
X130781000Y-96651000D01*
X128299000Y-96611000D02*
X124655000Y-96611000D01*
X134425000Y-96611000D02*
X130781000Y-96611000D01*
X128299000Y-96571000D02*
X124643000Y-96571000D01*
X134437000Y-96571000D02*
X130781000Y-96571000D01*
X128299000Y-96531000D02*
X124633000Y-96531000D01*
X134447000Y-96531000D02*
X130781000Y-96531000D01*
X128299000Y-96491000D02*
X124622000Y-96491000D01*
X134458000Y-96491000D02*
X130781000Y-96491000D01*
X134468000Y-96451000D02*
X124612000Y-96451000D01*
X134478000Y-96411000D02*
X124602000Y-96411000D01*
X134487000Y-96371000D02*
X124593000Y-96371000D01*
X134496000Y-96331000D02*
X124584000Y-96331000D01*
X134505000Y-96291000D02*
X124575000Y-96291000D01*
X134514000Y-96251000D02*
X124566000Y-96251000D01*
X134522000Y-96211000D02*
X124558000Y-96211000D01*
X134530000Y-96171000D02*
X124550000Y-96171000D01*
X134537000Y-96131000D02*
X124543000Y-96131000D01*
X134544000Y-96091000D02*
X124536000Y-96091000D01*
X134551000Y-96051000D02*
X124529000Y-96051000D01*
X134558000Y-96011000D02*
X124522000Y-96011000D01*
X134564000Y-95971000D02*
X124516000Y-95971000D01*
X134570000Y-95931000D02*
X124510000Y-95931000D01*
X134575000Y-95890000D02*
X124505000Y-95890000D01*
X134580000Y-95850000D02*
X124500000Y-95850000D01*
X134585000Y-95810000D02*
X124495000Y-95810000D01*
X134590000Y-95770000D02*
X124490000Y-95770000D01*
X134594000Y-95730000D02*
X124486000Y-95730000D01*
X134598000Y-95690000D02*
X124482000Y-95690000D01*
X134602000Y-95650000D02*
X124478000Y-95650000D01*
X134605000Y-95610000D02*
X124475000Y-95610000D01*
X134608000Y-95570000D02*
X124472000Y-95570000D01*
X134610000Y-95530000D02*
X124470000Y-95530000D01*
X134613000Y-95490000D02*
X124467000Y-95490000D01*
X134615000Y-95450000D02*
X124465000Y-95450000D01*
X134617000Y-95410000D02*
X124463000Y-95410000D01*
X134618000Y-95370000D02*
X124462000Y-95370000D01*
X134619000Y-95330000D02*
X124461000Y-95330000D01*
X134620000Y-95290000D02*
X124460000Y-95290000D01*
X134620000Y-95250000D02*
X124460000Y-95250000D01*
X134620000Y-95210000D02*
X124460000Y-95210000D01*
X134660000Y-95210000D02*
G75*
G03X134660000Y-95210000I-5120000J0D01*
G01*
G04 #@! TO.C,C2*
X112425241Y-117724000D02*
X112425241Y-117094000D01*
X112740241Y-117409000D02*
X112110241Y-117409000D01*
X105999000Y-115972000D02*
X105999000Y-115168000D01*
X106039000Y-116203000D02*
X106039000Y-114937000D01*
X106079000Y-116372000D02*
X106079000Y-114768000D01*
X106119000Y-116510000D02*
X106119000Y-114630000D01*
X106159000Y-116629000D02*
X106159000Y-114511000D01*
X106199000Y-116735000D02*
X106199000Y-114405000D01*
X106239000Y-116832000D02*
X106239000Y-114308000D01*
X106279000Y-116920000D02*
X106279000Y-114220000D01*
X106319000Y-117002000D02*
X106319000Y-114138000D01*
X106359000Y-117079000D02*
X106359000Y-114061000D01*
X106399000Y-117151000D02*
X106399000Y-113989000D01*
X106439000Y-117220000D02*
X106439000Y-113920000D01*
X106479000Y-117284000D02*
X106479000Y-113856000D01*
X106519000Y-117346000D02*
X106519000Y-113794000D01*
X106559000Y-117404000D02*
X106559000Y-113736000D01*
X106599000Y-117460000D02*
X106599000Y-113680000D01*
X106639000Y-117514000D02*
X106639000Y-113626000D01*
X106679000Y-117565000D02*
X106679000Y-113575000D01*
X106719000Y-117614000D02*
X106719000Y-113526000D01*
X106759000Y-117662000D02*
X106759000Y-113478000D01*
X106799000Y-117707000D02*
X106799000Y-113433000D01*
X106839000Y-117752000D02*
X106839000Y-113388000D01*
X106879000Y-117794000D02*
X106879000Y-113346000D01*
X106919000Y-117835000D02*
X106919000Y-113305000D01*
X106959000Y-114530000D02*
X106959000Y-113265000D01*
X106959000Y-117875000D02*
X106959000Y-116610000D01*
X106999000Y-114530000D02*
X106999000Y-113227000D01*
X106999000Y-117913000D02*
X106999000Y-116610000D01*
X107039000Y-114530000D02*
X107039000Y-113190000D01*
X107039000Y-117950000D02*
X107039000Y-116610000D01*
X107079000Y-114530000D02*
X107079000Y-113154000D01*
X107079000Y-117986000D02*
X107079000Y-116610000D01*
X107119000Y-114530000D02*
X107119000Y-113120000D01*
X107119000Y-118020000D02*
X107119000Y-116610000D01*
X107159000Y-114530000D02*
X107159000Y-113086000D01*
X107159000Y-118054000D02*
X107159000Y-116610000D01*
X107199000Y-114530000D02*
X107199000Y-113054000D01*
X107199000Y-118086000D02*
X107199000Y-116610000D01*
X107239000Y-114530000D02*
X107239000Y-113022000D01*
X107239000Y-118118000D02*
X107239000Y-116610000D01*
X107279000Y-114530000D02*
X107279000Y-112992000D01*
X107279000Y-118148000D02*
X107279000Y-116610000D01*
X107319000Y-114530000D02*
X107319000Y-112963000D01*
X107319000Y-118177000D02*
X107319000Y-116610000D01*
X107359000Y-114530000D02*
X107359000Y-112934000D01*
X107359000Y-118206000D02*
X107359000Y-116610000D01*
X107399000Y-114530000D02*
X107399000Y-112906000D01*
X107399000Y-118234000D02*
X107399000Y-116610000D01*
X107439000Y-114530000D02*
X107439000Y-112880000D01*
X107439000Y-118260000D02*
X107439000Y-116610000D01*
X107479000Y-114530000D02*
X107479000Y-112854000D01*
X107479000Y-118286000D02*
X107479000Y-116610000D01*
X107519000Y-114530000D02*
X107519000Y-112828000D01*
X107519000Y-118312000D02*
X107519000Y-116610000D01*
X107559000Y-114530000D02*
X107559000Y-112804000D01*
X107559000Y-118336000D02*
X107559000Y-116610000D01*
X107599000Y-114530000D02*
X107599000Y-112780000D01*
X107599000Y-118360000D02*
X107599000Y-116610000D01*
X107639000Y-114530000D02*
X107639000Y-112758000D01*
X107639000Y-118382000D02*
X107639000Y-116610000D01*
X107679000Y-114530000D02*
X107679000Y-112736000D01*
X107679000Y-118404000D02*
X107679000Y-116610000D01*
X107719000Y-114530000D02*
X107719000Y-112714000D01*
X107719000Y-118426000D02*
X107719000Y-116610000D01*
X107759000Y-114530000D02*
X107759000Y-112694000D01*
X107759000Y-118446000D02*
X107759000Y-116610000D01*
X107799000Y-114530000D02*
X107799000Y-112674000D01*
X107799000Y-118466000D02*
X107799000Y-116610000D01*
X107839000Y-114530000D02*
X107839000Y-112654000D01*
X107839000Y-118486000D02*
X107839000Y-116610000D01*
X107879000Y-114530000D02*
X107879000Y-112636000D01*
X107879000Y-118504000D02*
X107879000Y-116610000D01*
X107919000Y-114530000D02*
X107919000Y-112618000D01*
X107919000Y-118522000D02*
X107919000Y-116610000D01*
X107959000Y-114530000D02*
X107959000Y-112600000D01*
X107959000Y-118540000D02*
X107959000Y-116610000D01*
X107999000Y-114530000D02*
X107999000Y-112584000D01*
X107999000Y-118556000D02*
X107999000Y-116610000D01*
X108039000Y-114530000D02*
X108039000Y-112568000D01*
X108039000Y-118572000D02*
X108039000Y-116610000D01*
X108079000Y-114530000D02*
X108079000Y-112552000D01*
X108079000Y-118588000D02*
X108079000Y-116610000D01*
X108119000Y-114530000D02*
X108119000Y-112537000D01*
X108119000Y-118603000D02*
X108119000Y-116610000D01*
X108159000Y-114530000D02*
X108159000Y-112523000D01*
X108159000Y-118617000D02*
X108159000Y-116610000D01*
X108199000Y-114530000D02*
X108199000Y-112509000D01*
X108199000Y-118631000D02*
X108199000Y-116610000D01*
X108239000Y-114530000D02*
X108239000Y-112496000D01*
X108239000Y-118644000D02*
X108239000Y-116610000D01*
X108279000Y-114530000D02*
X108279000Y-112484000D01*
X108279000Y-118656000D02*
X108279000Y-116610000D01*
X108319000Y-114530000D02*
X108319000Y-112472000D01*
X108319000Y-118668000D02*
X108319000Y-116610000D01*
X108359000Y-114530000D02*
X108359000Y-112460000D01*
X108359000Y-118680000D02*
X108359000Y-116610000D01*
X108399000Y-114530000D02*
X108399000Y-112449000D01*
X108399000Y-118691000D02*
X108399000Y-116610000D01*
X108439000Y-114530000D02*
X108439000Y-112439000D01*
X108439000Y-118701000D02*
X108439000Y-116610000D01*
X108479000Y-114530000D02*
X108479000Y-112429000D01*
X108479000Y-118711000D02*
X108479000Y-116610000D01*
X108519000Y-114530000D02*
X108519000Y-112420000D01*
X108519000Y-118720000D02*
X108519000Y-116610000D01*
X108560000Y-114530000D02*
X108560000Y-112411000D01*
X108560000Y-118729000D02*
X108560000Y-116610000D01*
X108600000Y-114530000D02*
X108600000Y-112403000D01*
X108600000Y-118737000D02*
X108600000Y-116610000D01*
X108640000Y-114530000D02*
X108640000Y-112395000D01*
X108640000Y-118745000D02*
X108640000Y-116610000D01*
X108680000Y-114530000D02*
X108680000Y-112388000D01*
X108680000Y-118752000D02*
X108680000Y-116610000D01*
X108720000Y-114530000D02*
X108720000Y-112381000D01*
X108720000Y-118759000D02*
X108720000Y-116610000D01*
X108760000Y-114530000D02*
X108760000Y-112375000D01*
X108760000Y-118765000D02*
X108760000Y-116610000D01*
X108800000Y-114530000D02*
X108800000Y-112369000D01*
X108800000Y-118771000D02*
X108800000Y-116610000D01*
X108840000Y-114530000D02*
X108840000Y-112364000D01*
X108840000Y-118776000D02*
X108840000Y-116610000D01*
X108880000Y-114530000D02*
X108880000Y-112359000D01*
X108880000Y-118781000D02*
X108880000Y-116610000D01*
X108920000Y-114530000D02*
X108920000Y-112355000D01*
X108920000Y-118785000D02*
X108920000Y-116610000D01*
X108960000Y-114530000D02*
X108960000Y-112352000D01*
X108960000Y-118788000D02*
X108960000Y-116610000D01*
X109000000Y-114530000D02*
X109000000Y-112348000D01*
X109000000Y-118792000D02*
X109000000Y-116610000D01*
X109040000Y-118794000D02*
X109040000Y-112346000D01*
X109080000Y-118797000D02*
X109080000Y-112343000D01*
X109120000Y-118798000D02*
X109120000Y-112342000D01*
X109160000Y-118800000D02*
X109160000Y-112340000D01*
X109200000Y-118800000D02*
X109200000Y-112340000D01*
X109240000Y-118800000D02*
X109240000Y-112340000D01*
X112510000Y-115570000D02*
G75*
G03X112510000Y-115570000I-3270000J0D01*
G01*
G04 #@! TO.C,C3*
X111990000Y-125560000D02*
X111990000Y-120820000D01*
X119230000Y-125560000D02*
X119230000Y-120820000D01*
X119230000Y-120820000D02*
X111990000Y-120820000D01*
X119230000Y-125560000D02*
X111990000Y-125560000D01*
G04 #@! TO.C,C4*
X131435241Y-117724000D02*
X131435241Y-117094000D01*
X131750241Y-117409000D02*
X131120241Y-117409000D01*
X125009000Y-115972000D02*
X125009000Y-115168000D01*
X125049000Y-116203000D02*
X125049000Y-114937000D01*
X125089000Y-116372000D02*
X125089000Y-114768000D01*
X125129000Y-116510000D02*
X125129000Y-114630000D01*
X125169000Y-116629000D02*
X125169000Y-114511000D01*
X125209000Y-116735000D02*
X125209000Y-114405000D01*
X125249000Y-116832000D02*
X125249000Y-114308000D01*
X125289000Y-116920000D02*
X125289000Y-114220000D01*
X125329000Y-117002000D02*
X125329000Y-114138000D01*
X125369000Y-117079000D02*
X125369000Y-114061000D01*
X125409000Y-117151000D02*
X125409000Y-113989000D01*
X125449000Y-117220000D02*
X125449000Y-113920000D01*
X125489000Y-117284000D02*
X125489000Y-113856000D01*
X125529000Y-117346000D02*
X125529000Y-113794000D01*
X125569000Y-117404000D02*
X125569000Y-113736000D01*
X125609000Y-117460000D02*
X125609000Y-113680000D01*
X125649000Y-117514000D02*
X125649000Y-113626000D01*
X125689000Y-117565000D02*
X125689000Y-113575000D01*
X125729000Y-117614000D02*
X125729000Y-113526000D01*
X125769000Y-117662000D02*
X125769000Y-113478000D01*
X125809000Y-117707000D02*
X125809000Y-113433000D01*
X125849000Y-117752000D02*
X125849000Y-113388000D01*
X125889000Y-117794000D02*
X125889000Y-113346000D01*
X125929000Y-117835000D02*
X125929000Y-113305000D01*
X125969000Y-114530000D02*
X125969000Y-113265000D01*
X125969000Y-117875000D02*
X125969000Y-116610000D01*
X126009000Y-114530000D02*
X126009000Y-113227000D01*
X126009000Y-117913000D02*
X126009000Y-116610000D01*
X126049000Y-114530000D02*
X126049000Y-113190000D01*
X126049000Y-117950000D02*
X126049000Y-116610000D01*
X126089000Y-114530000D02*
X126089000Y-113154000D01*
X126089000Y-117986000D02*
X126089000Y-116610000D01*
X126129000Y-114530000D02*
X126129000Y-113120000D01*
X126129000Y-118020000D02*
X126129000Y-116610000D01*
X126169000Y-114530000D02*
X126169000Y-113086000D01*
X126169000Y-118054000D02*
X126169000Y-116610000D01*
X126209000Y-114530000D02*
X126209000Y-113054000D01*
X126209000Y-118086000D02*
X126209000Y-116610000D01*
X126249000Y-114530000D02*
X126249000Y-113022000D01*
X126249000Y-118118000D02*
X126249000Y-116610000D01*
X126289000Y-114530000D02*
X126289000Y-112992000D01*
X126289000Y-118148000D02*
X126289000Y-116610000D01*
X126329000Y-114530000D02*
X126329000Y-112963000D01*
X126329000Y-118177000D02*
X126329000Y-116610000D01*
X126369000Y-114530000D02*
X126369000Y-112934000D01*
X126369000Y-118206000D02*
X126369000Y-116610000D01*
X126409000Y-114530000D02*
X126409000Y-112906000D01*
X126409000Y-118234000D02*
X126409000Y-116610000D01*
X126449000Y-114530000D02*
X126449000Y-112880000D01*
X126449000Y-118260000D02*
X126449000Y-116610000D01*
X126489000Y-114530000D02*
X126489000Y-112854000D01*
X126489000Y-118286000D02*
X126489000Y-116610000D01*
X126529000Y-114530000D02*
X126529000Y-112828000D01*
X126529000Y-118312000D02*
X126529000Y-116610000D01*
X126569000Y-114530000D02*
X126569000Y-112804000D01*
X126569000Y-118336000D02*
X126569000Y-116610000D01*
X126609000Y-114530000D02*
X126609000Y-112780000D01*
X126609000Y-118360000D02*
X126609000Y-116610000D01*
X126649000Y-114530000D02*
X126649000Y-112758000D01*
X126649000Y-118382000D02*
X126649000Y-116610000D01*
X126689000Y-114530000D02*
X126689000Y-112736000D01*
X126689000Y-118404000D02*
X126689000Y-116610000D01*
X126729000Y-114530000D02*
X126729000Y-112714000D01*
X126729000Y-118426000D02*
X126729000Y-116610000D01*
X126769000Y-114530000D02*
X126769000Y-112694000D01*
X126769000Y-118446000D02*
X126769000Y-116610000D01*
X126809000Y-114530000D02*
X126809000Y-112674000D01*
X126809000Y-118466000D02*
X126809000Y-116610000D01*
X126849000Y-114530000D02*
X126849000Y-112654000D01*
X126849000Y-118486000D02*
X126849000Y-116610000D01*
X126889000Y-114530000D02*
X126889000Y-112636000D01*
X126889000Y-118504000D02*
X126889000Y-116610000D01*
X126929000Y-114530000D02*
X126929000Y-112618000D01*
X126929000Y-118522000D02*
X126929000Y-116610000D01*
X126969000Y-114530000D02*
X126969000Y-112600000D01*
X126969000Y-118540000D02*
X126969000Y-116610000D01*
X127009000Y-114530000D02*
X127009000Y-112584000D01*
X127009000Y-118556000D02*
X127009000Y-116610000D01*
X127049000Y-114530000D02*
X127049000Y-112568000D01*
X127049000Y-118572000D02*
X127049000Y-116610000D01*
X127089000Y-114530000D02*
X127089000Y-112552000D01*
X127089000Y-118588000D02*
X127089000Y-116610000D01*
X127129000Y-114530000D02*
X127129000Y-112537000D01*
X127129000Y-118603000D02*
X127129000Y-116610000D01*
X127169000Y-114530000D02*
X127169000Y-112523000D01*
X127169000Y-118617000D02*
X127169000Y-116610000D01*
X127209000Y-114530000D02*
X127209000Y-112509000D01*
X127209000Y-118631000D02*
X127209000Y-116610000D01*
X127249000Y-114530000D02*
X127249000Y-112496000D01*
X127249000Y-118644000D02*
X127249000Y-116610000D01*
X127289000Y-114530000D02*
X127289000Y-112484000D01*
X127289000Y-118656000D02*
X127289000Y-116610000D01*
X127329000Y-114530000D02*
X127329000Y-112472000D01*
X127329000Y-118668000D02*
X127329000Y-116610000D01*
X127369000Y-114530000D02*
X127369000Y-112460000D01*
X127369000Y-118680000D02*
X127369000Y-116610000D01*
X127409000Y-114530000D02*
X127409000Y-112449000D01*
X127409000Y-118691000D02*
X127409000Y-116610000D01*
X127449000Y-114530000D02*
X127449000Y-112439000D01*
X127449000Y-118701000D02*
X127449000Y-116610000D01*
X127489000Y-114530000D02*
X127489000Y-112429000D01*
X127489000Y-118711000D02*
X127489000Y-116610000D01*
X127529000Y-114530000D02*
X127529000Y-112420000D01*
X127529000Y-118720000D02*
X127529000Y-116610000D01*
X127570000Y-114530000D02*
X127570000Y-112411000D01*
X127570000Y-118729000D02*
X127570000Y-116610000D01*
X127610000Y-114530000D02*
X127610000Y-112403000D01*
X127610000Y-118737000D02*
X127610000Y-116610000D01*
X127650000Y-114530000D02*
X127650000Y-112395000D01*
X127650000Y-118745000D02*
X127650000Y-116610000D01*
X127690000Y-114530000D02*
X127690000Y-112388000D01*
X127690000Y-118752000D02*
X127690000Y-116610000D01*
X127730000Y-114530000D02*
X127730000Y-112381000D01*
X127730000Y-118759000D02*
X127730000Y-116610000D01*
X127770000Y-114530000D02*
X127770000Y-112375000D01*
X127770000Y-118765000D02*
X127770000Y-116610000D01*
X127810000Y-114530000D02*
X127810000Y-112369000D01*
X127810000Y-118771000D02*
X127810000Y-116610000D01*
X127850000Y-114530000D02*
X127850000Y-112364000D01*
X127850000Y-118776000D02*
X127850000Y-116610000D01*
X127890000Y-114530000D02*
X127890000Y-112359000D01*
X127890000Y-118781000D02*
X127890000Y-116610000D01*
X127930000Y-114530000D02*
X127930000Y-112355000D01*
X127930000Y-118785000D02*
X127930000Y-116610000D01*
X127970000Y-114530000D02*
X127970000Y-112352000D01*
X127970000Y-118788000D02*
X127970000Y-116610000D01*
X128010000Y-114530000D02*
X128010000Y-112348000D01*
X128010000Y-118792000D02*
X128010000Y-116610000D01*
X128050000Y-118794000D02*
X128050000Y-112346000D01*
X128090000Y-118797000D02*
X128090000Y-112343000D01*
X128130000Y-118798000D02*
X128130000Y-112342000D01*
X128170000Y-118800000D02*
X128170000Y-112340000D01*
X128210000Y-118800000D02*
X128210000Y-112340000D01*
X128250000Y-118800000D02*
X128250000Y-112340000D01*
X131520000Y-115570000D02*
G75*
G03X131520000Y-115570000I-3270000J0D01*
G01*
G04 #@! TO.C,C5*
X139550000Y-125560000D02*
X132310000Y-125560000D01*
X139550000Y-120820000D02*
X132310000Y-120820000D01*
X139550000Y-125560000D02*
X139550000Y-120820000D01*
X132310000Y-125560000D02*
X132310000Y-120820000D01*
G04 #@! TO.C,C6*
X150464759Y-85476000D02*
X150464759Y-86106000D01*
X150149759Y-85791000D02*
X150779759Y-85791000D01*
X156891000Y-87228000D02*
X156891000Y-88032000D01*
X156851000Y-86997000D02*
X156851000Y-88263000D01*
X156811000Y-86828000D02*
X156811000Y-88432000D01*
X156771000Y-86690000D02*
X156771000Y-88570000D01*
X156731000Y-86571000D02*
X156731000Y-88689000D01*
X156691000Y-86465000D02*
X156691000Y-88795000D01*
X156651000Y-86368000D02*
X156651000Y-88892000D01*
X156611000Y-86280000D02*
X156611000Y-88980000D01*
X156571000Y-86198000D02*
X156571000Y-89062000D01*
X156531000Y-86121000D02*
X156531000Y-89139000D01*
X156491000Y-86049000D02*
X156491000Y-89211000D01*
X156451000Y-85980000D02*
X156451000Y-89280000D01*
X156411000Y-85916000D02*
X156411000Y-89344000D01*
X156371000Y-85854000D02*
X156371000Y-89406000D01*
X156331000Y-85796000D02*
X156331000Y-89464000D01*
X156291000Y-85740000D02*
X156291000Y-89520000D01*
X156251000Y-85686000D02*
X156251000Y-89574000D01*
X156211000Y-85635000D02*
X156211000Y-89625000D01*
X156171000Y-85586000D02*
X156171000Y-89674000D01*
X156131000Y-85538000D02*
X156131000Y-89722000D01*
X156091000Y-85493000D02*
X156091000Y-89767000D01*
X156051000Y-85448000D02*
X156051000Y-89812000D01*
X156011000Y-85406000D02*
X156011000Y-89854000D01*
X155971000Y-85365000D02*
X155971000Y-89895000D01*
X155931000Y-88670000D02*
X155931000Y-89935000D01*
X155931000Y-85325000D02*
X155931000Y-86590000D01*
X155891000Y-88670000D02*
X155891000Y-89973000D01*
X155891000Y-85287000D02*
X155891000Y-86590000D01*
X155851000Y-88670000D02*
X155851000Y-90010000D01*
X155851000Y-85250000D02*
X155851000Y-86590000D01*
X155811000Y-88670000D02*
X155811000Y-90046000D01*
X155811000Y-85214000D02*
X155811000Y-86590000D01*
X155771000Y-88670000D02*
X155771000Y-90080000D01*
X155771000Y-85180000D02*
X155771000Y-86590000D01*
X155731000Y-88670000D02*
X155731000Y-90114000D01*
X155731000Y-85146000D02*
X155731000Y-86590000D01*
X155691000Y-88670000D02*
X155691000Y-90146000D01*
X155691000Y-85114000D02*
X155691000Y-86590000D01*
X155651000Y-88670000D02*
X155651000Y-90178000D01*
X155651000Y-85082000D02*
X155651000Y-86590000D01*
X155611000Y-88670000D02*
X155611000Y-90208000D01*
X155611000Y-85052000D02*
X155611000Y-86590000D01*
X155571000Y-88670000D02*
X155571000Y-90237000D01*
X155571000Y-85023000D02*
X155571000Y-86590000D01*
X155531000Y-88670000D02*
X155531000Y-90266000D01*
X155531000Y-84994000D02*
X155531000Y-86590000D01*
X155491000Y-88670000D02*
X155491000Y-90294000D01*
X155491000Y-84966000D02*
X155491000Y-86590000D01*
X155451000Y-88670000D02*
X155451000Y-90320000D01*
X155451000Y-84940000D02*
X155451000Y-86590000D01*
X155411000Y-88670000D02*
X155411000Y-90346000D01*
X155411000Y-84914000D02*
X155411000Y-86590000D01*
X155371000Y-88670000D02*
X155371000Y-90372000D01*
X155371000Y-84888000D02*
X155371000Y-86590000D01*
X155331000Y-88670000D02*
X155331000Y-90396000D01*
X155331000Y-84864000D02*
X155331000Y-86590000D01*
X155291000Y-88670000D02*
X155291000Y-90420000D01*
X155291000Y-84840000D02*
X155291000Y-86590000D01*
X155251000Y-88670000D02*
X155251000Y-90442000D01*
X155251000Y-84818000D02*
X155251000Y-86590000D01*
X155211000Y-88670000D02*
X155211000Y-90464000D01*
X155211000Y-84796000D02*
X155211000Y-86590000D01*
X155171000Y-88670000D02*
X155171000Y-90486000D01*
X155171000Y-84774000D02*
X155171000Y-86590000D01*
X155131000Y-88670000D02*
X155131000Y-90506000D01*
X155131000Y-84754000D02*
X155131000Y-86590000D01*
X155091000Y-88670000D02*
X155091000Y-90526000D01*
X155091000Y-84734000D02*
X155091000Y-86590000D01*
X155051000Y-88670000D02*
X155051000Y-90546000D01*
X155051000Y-84714000D02*
X155051000Y-86590000D01*
X155011000Y-88670000D02*
X155011000Y-90564000D01*
X155011000Y-84696000D02*
X155011000Y-86590000D01*
X154971000Y-88670000D02*
X154971000Y-90582000D01*
X154971000Y-84678000D02*
X154971000Y-86590000D01*
X154931000Y-88670000D02*
X154931000Y-90600000D01*
X154931000Y-84660000D02*
X154931000Y-86590000D01*
X154891000Y-88670000D02*
X154891000Y-90616000D01*
X154891000Y-84644000D02*
X154891000Y-86590000D01*
X154851000Y-88670000D02*
X154851000Y-90632000D01*
X154851000Y-84628000D02*
X154851000Y-86590000D01*
X154811000Y-88670000D02*
X154811000Y-90648000D01*
X154811000Y-84612000D02*
X154811000Y-86590000D01*
X154771000Y-88670000D02*
X154771000Y-90663000D01*
X154771000Y-84597000D02*
X154771000Y-86590000D01*
X154731000Y-88670000D02*
X154731000Y-90677000D01*
X154731000Y-84583000D02*
X154731000Y-86590000D01*
X154691000Y-88670000D02*
X154691000Y-90691000D01*
X154691000Y-84569000D02*
X154691000Y-86590000D01*
X154651000Y-88670000D02*
X154651000Y-90704000D01*
X154651000Y-84556000D02*
X154651000Y-86590000D01*
X154611000Y-88670000D02*
X154611000Y-90716000D01*
X154611000Y-84544000D02*
X154611000Y-86590000D01*
X154571000Y-88670000D02*
X154571000Y-90728000D01*
X154571000Y-84532000D02*
X154571000Y-86590000D01*
X154531000Y-88670000D02*
X154531000Y-90740000D01*
X154531000Y-84520000D02*
X154531000Y-86590000D01*
X154491000Y-88670000D02*
X154491000Y-90751000D01*
X154491000Y-84509000D02*
X154491000Y-86590000D01*
X154451000Y-88670000D02*
X154451000Y-90761000D01*
X154451000Y-84499000D02*
X154451000Y-86590000D01*
X154411000Y-88670000D02*
X154411000Y-90771000D01*
X154411000Y-84489000D02*
X154411000Y-86590000D01*
X154371000Y-88670000D02*
X154371000Y-90780000D01*
X154371000Y-84480000D02*
X154371000Y-86590000D01*
X154330000Y-88670000D02*
X154330000Y-90789000D01*
X154330000Y-84471000D02*
X154330000Y-86590000D01*
X154290000Y-88670000D02*
X154290000Y-90797000D01*
X154290000Y-84463000D02*
X154290000Y-86590000D01*
X154250000Y-88670000D02*
X154250000Y-90805000D01*
X154250000Y-84455000D02*
X154250000Y-86590000D01*
X154210000Y-88670000D02*
X154210000Y-90812000D01*
X154210000Y-84448000D02*
X154210000Y-86590000D01*
X154170000Y-88670000D02*
X154170000Y-90819000D01*
X154170000Y-84441000D02*
X154170000Y-86590000D01*
X154130000Y-88670000D02*
X154130000Y-90825000D01*
X154130000Y-84435000D02*
X154130000Y-86590000D01*
X154090000Y-88670000D02*
X154090000Y-90831000D01*
X154090000Y-84429000D02*
X154090000Y-86590000D01*
X154050000Y-88670000D02*
X154050000Y-90836000D01*
X154050000Y-84424000D02*
X154050000Y-86590000D01*
X154010000Y-88670000D02*
X154010000Y-90841000D01*
X154010000Y-84419000D02*
X154010000Y-86590000D01*
X153970000Y-88670000D02*
X153970000Y-90845000D01*
X153970000Y-84415000D02*
X153970000Y-86590000D01*
X153930000Y-88670000D02*
X153930000Y-90848000D01*
X153930000Y-84412000D02*
X153930000Y-86590000D01*
X153890000Y-88670000D02*
X153890000Y-90852000D01*
X153890000Y-84408000D02*
X153890000Y-86590000D01*
X153850000Y-84406000D02*
X153850000Y-90854000D01*
X153810000Y-84403000D02*
X153810000Y-90857000D01*
X153770000Y-84402000D02*
X153770000Y-90858000D01*
X153730000Y-84400000D02*
X153730000Y-90860000D01*
X153690000Y-84400000D02*
X153690000Y-90860000D01*
X153650000Y-84400000D02*
X153650000Y-90860000D01*
X156920000Y-87630000D02*
G75*
G03X156920000Y-87630000I-3270000J0D01*
G01*
G04 #@! TO.C,C7*
X176360000Y-94130000D02*
X176360000Y-101370000D01*
X171620000Y-94130000D02*
X171620000Y-101370000D01*
X176360000Y-94130000D02*
X171620000Y-94130000D01*
X176360000Y-101370000D02*
X171620000Y-101370000D01*
G04 #@! TO.C,C8*
X151860000Y-101620000D02*
G75*
G03X151860000Y-101620000I-3270000J0D01*
G01*
X145360000Y-101620000D02*
X151820000Y-101620000D01*
X145360000Y-101580000D02*
X151820000Y-101580000D01*
X145360000Y-101540000D02*
X151820000Y-101540000D01*
X145362000Y-101500000D02*
X151818000Y-101500000D01*
X145363000Y-101460000D02*
X151817000Y-101460000D01*
X145366000Y-101420000D02*
X151814000Y-101420000D01*
X145368000Y-101380000D02*
X147550000Y-101380000D01*
X149630000Y-101380000D02*
X151812000Y-101380000D01*
X145372000Y-101340000D02*
X147550000Y-101340000D01*
X149630000Y-101340000D02*
X151808000Y-101340000D01*
X145375000Y-101300000D02*
X147550000Y-101300000D01*
X149630000Y-101300000D02*
X151805000Y-101300000D01*
X145379000Y-101260000D02*
X147550000Y-101260000D01*
X149630000Y-101260000D02*
X151801000Y-101260000D01*
X145384000Y-101220000D02*
X147550000Y-101220000D01*
X149630000Y-101220000D02*
X151796000Y-101220000D01*
X145389000Y-101180000D02*
X147550000Y-101180000D01*
X149630000Y-101180000D02*
X151791000Y-101180000D01*
X145395000Y-101140000D02*
X147550000Y-101140000D01*
X149630000Y-101140000D02*
X151785000Y-101140000D01*
X145401000Y-101100000D02*
X147550000Y-101100000D01*
X149630000Y-101100000D02*
X151779000Y-101100000D01*
X145408000Y-101060000D02*
X147550000Y-101060000D01*
X149630000Y-101060000D02*
X151772000Y-101060000D01*
X145415000Y-101020000D02*
X147550000Y-101020000D01*
X149630000Y-101020000D02*
X151765000Y-101020000D01*
X145423000Y-100980000D02*
X147550000Y-100980000D01*
X149630000Y-100980000D02*
X151757000Y-100980000D01*
X145431000Y-100940000D02*
X147550000Y-100940000D01*
X149630000Y-100940000D02*
X151749000Y-100940000D01*
X145440000Y-100899000D02*
X147550000Y-100899000D01*
X149630000Y-100899000D02*
X151740000Y-100899000D01*
X145449000Y-100859000D02*
X147550000Y-100859000D01*
X149630000Y-100859000D02*
X151731000Y-100859000D01*
X145459000Y-100819000D02*
X147550000Y-100819000D01*
X149630000Y-100819000D02*
X151721000Y-100819000D01*
X145469000Y-100779000D02*
X147550000Y-100779000D01*
X149630000Y-100779000D02*
X151711000Y-100779000D01*
X145480000Y-100739000D02*
X147550000Y-100739000D01*
X149630000Y-100739000D02*
X151700000Y-100739000D01*
X145492000Y-100699000D02*
X147550000Y-100699000D01*
X149630000Y-100699000D02*
X151688000Y-100699000D01*
X145504000Y-100659000D02*
X147550000Y-100659000D01*
X149630000Y-100659000D02*
X151676000Y-100659000D01*
X145516000Y-100619000D02*
X147550000Y-100619000D01*
X149630000Y-100619000D02*
X151664000Y-100619000D01*
X145529000Y-100579000D02*
X147550000Y-100579000D01*
X149630000Y-100579000D02*
X151651000Y-100579000D01*
X145543000Y-100539000D02*
X147550000Y-100539000D01*
X149630000Y-100539000D02*
X151637000Y-100539000D01*
X145557000Y-100499000D02*
X147550000Y-100499000D01*
X149630000Y-100499000D02*
X151623000Y-100499000D01*
X145572000Y-100459000D02*
X147550000Y-100459000D01*
X149630000Y-100459000D02*
X151608000Y-100459000D01*
X145588000Y-100419000D02*
X147550000Y-100419000D01*
X149630000Y-100419000D02*
X151592000Y-100419000D01*
X145604000Y-100379000D02*
X147550000Y-100379000D01*
X149630000Y-100379000D02*
X151576000Y-100379000D01*
X145620000Y-100339000D02*
X147550000Y-100339000D01*
X149630000Y-100339000D02*
X151560000Y-100339000D01*
X145638000Y-100299000D02*
X147550000Y-100299000D01*
X149630000Y-100299000D02*
X151542000Y-100299000D01*
X145656000Y-100259000D02*
X147550000Y-100259000D01*
X149630000Y-100259000D02*
X151524000Y-100259000D01*
X145674000Y-100219000D02*
X147550000Y-100219000D01*
X149630000Y-100219000D02*
X151506000Y-100219000D01*
X145694000Y-100179000D02*
X147550000Y-100179000D01*
X149630000Y-100179000D02*
X151486000Y-100179000D01*
X145714000Y-100139000D02*
X147550000Y-100139000D01*
X149630000Y-100139000D02*
X151466000Y-100139000D01*
X145734000Y-100099000D02*
X147550000Y-100099000D01*
X149630000Y-100099000D02*
X151446000Y-100099000D01*
X145756000Y-100059000D02*
X147550000Y-100059000D01*
X149630000Y-100059000D02*
X151424000Y-100059000D01*
X145778000Y-100019000D02*
X147550000Y-100019000D01*
X149630000Y-100019000D02*
X151402000Y-100019000D01*
X145800000Y-99979000D02*
X147550000Y-99979000D01*
X149630000Y-99979000D02*
X151380000Y-99979000D01*
X145824000Y-99939000D02*
X147550000Y-99939000D01*
X149630000Y-99939000D02*
X151356000Y-99939000D01*
X145848000Y-99899000D02*
X147550000Y-99899000D01*
X149630000Y-99899000D02*
X151332000Y-99899000D01*
X145874000Y-99859000D02*
X147550000Y-99859000D01*
X149630000Y-99859000D02*
X151306000Y-99859000D01*
X145900000Y-99819000D02*
X147550000Y-99819000D01*
X149630000Y-99819000D02*
X151280000Y-99819000D01*
X145926000Y-99779000D02*
X147550000Y-99779000D01*
X149630000Y-99779000D02*
X151254000Y-99779000D01*
X145954000Y-99739000D02*
X147550000Y-99739000D01*
X149630000Y-99739000D02*
X151226000Y-99739000D01*
X145983000Y-99699000D02*
X147550000Y-99699000D01*
X149630000Y-99699000D02*
X151197000Y-99699000D01*
X146012000Y-99659000D02*
X147550000Y-99659000D01*
X149630000Y-99659000D02*
X151168000Y-99659000D01*
X146042000Y-99619000D02*
X147550000Y-99619000D01*
X149630000Y-99619000D02*
X151138000Y-99619000D01*
X146074000Y-99579000D02*
X147550000Y-99579000D01*
X149630000Y-99579000D02*
X151106000Y-99579000D01*
X146106000Y-99539000D02*
X147550000Y-99539000D01*
X149630000Y-99539000D02*
X151074000Y-99539000D01*
X146140000Y-99499000D02*
X147550000Y-99499000D01*
X149630000Y-99499000D02*
X151040000Y-99499000D01*
X146174000Y-99459000D02*
X147550000Y-99459000D01*
X149630000Y-99459000D02*
X151006000Y-99459000D01*
X146210000Y-99419000D02*
X147550000Y-99419000D01*
X149630000Y-99419000D02*
X150970000Y-99419000D01*
X146247000Y-99379000D02*
X147550000Y-99379000D01*
X149630000Y-99379000D02*
X150933000Y-99379000D01*
X146285000Y-99339000D02*
X147550000Y-99339000D01*
X149630000Y-99339000D02*
X150895000Y-99339000D01*
X146325000Y-99299000D02*
X150855000Y-99299000D01*
X146366000Y-99259000D02*
X150814000Y-99259000D01*
X146408000Y-99219000D02*
X150772000Y-99219000D01*
X146453000Y-99179000D02*
X150727000Y-99179000D01*
X146498000Y-99139000D02*
X150682000Y-99139000D01*
X146546000Y-99099000D02*
X150634000Y-99099000D01*
X146595000Y-99059000D02*
X150585000Y-99059000D01*
X146646000Y-99019000D02*
X150534000Y-99019000D01*
X146700000Y-98979000D02*
X150480000Y-98979000D01*
X146756000Y-98939000D02*
X150424000Y-98939000D01*
X146814000Y-98899000D02*
X150366000Y-98899000D01*
X146876000Y-98859000D02*
X150304000Y-98859000D01*
X146940000Y-98819000D02*
X150240000Y-98819000D01*
X147009000Y-98779000D02*
X150171000Y-98779000D01*
X147081000Y-98739000D02*
X150099000Y-98739000D01*
X147158000Y-98699000D02*
X150022000Y-98699000D01*
X147240000Y-98659000D02*
X149940000Y-98659000D01*
X147328000Y-98619000D02*
X149852000Y-98619000D01*
X147425000Y-98579000D02*
X149755000Y-98579000D01*
X147531000Y-98539000D02*
X149649000Y-98539000D01*
X147650000Y-98499000D02*
X149530000Y-98499000D01*
X147788000Y-98459000D02*
X149392000Y-98459000D01*
X147957000Y-98419000D02*
X149223000Y-98419000D01*
X148188000Y-98379000D02*
X148992000Y-98379000D01*
X146751000Y-105120241D02*
X146751000Y-104490241D01*
X146436000Y-104805241D02*
X147066000Y-104805241D01*
G04 #@! TO.C,C9*
X172160000Y-121920000D02*
G75*
G03X172160000Y-121920000I-3270000J0D01*
G01*
X168890000Y-118690000D02*
X168890000Y-125150000D01*
X168930000Y-118690000D02*
X168930000Y-125150000D01*
X168970000Y-118690000D02*
X168970000Y-125150000D01*
X169010000Y-118692000D02*
X169010000Y-125148000D01*
X169050000Y-118693000D02*
X169050000Y-125147000D01*
X169090000Y-118696000D02*
X169090000Y-125144000D01*
X169130000Y-118698000D02*
X169130000Y-120880000D01*
X169130000Y-122960000D02*
X169130000Y-125142000D01*
X169170000Y-118702000D02*
X169170000Y-120880000D01*
X169170000Y-122960000D02*
X169170000Y-125138000D01*
X169210000Y-118705000D02*
X169210000Y-120880000D01*
X169210000Y-122960000D02*
X169210000Y-125135000D01*
X169250000Y-118709000D02*
X169250000Y-120880000D01*
X169250000Y-122960000D02*
X169250000Y-125131000D01*
X169290000Y-118714000D02*
X169290000Y-120880000D01*
X169290000Y-122960000D02*
X169290000Y-125126000D01*
X169330000Y-118719000D02*
X169330000Y-120880000D01*
X169330000Y-122960000D02*
X169330000Y-125121000D01*
X169370000Y-118725000D02*
X169370000Y-120880000D01*
X169370000Y-122960000D02*
X169370000Y-125115000D01*
X169410000Y-118731000D02*
X169410000Y-120880000D01*
X169410000Y-122960000D02*
X169410000Y-125109000D01*
X169450000Y-118738000D02*
X169450000Y-120880000D01*
X169450000Y-122960000D02*
X169450000Y-125102000D01*
X169490000Y-118745000D02*
X169490000Y-120880000D01*
X169490000Y-122960000D02*
X169490000Y-125095000D01*
X169530000Y-118753000D02*
X169530000Y-120880000D01*
X169530000Y-122960000D02*
X169530000Y-125087000D01*
X169570000Y-118761000D02*
X169570000Y-120880000D01*
X169570000Y-122960000D02*
X169570000Y-125079000D01*
X169611000Y-118770000D02*
X169611000Y-120880000D01*
X169611000Y-122960000D02*
X169611000Y-125070000D01*
X169651000Y-118779000D02*
X169651000Y-120880000D01*
X169651000Y-122960000D02*
X169651000Y-125061000D01*
X169691000Y-118789000D02*
X169691000Y-120880000D01*
X169691000Y-122960000D02*
X169691000Y-125051000D01*
X169731000Y-118799000D02*
X169731000Y-120880000D01*
X169731000Y-122960000D02*
X169731000Y-125041000D01*
X169771000Y-118810000D02*
X169771000Y-120880000D01*
X169771000Y-122960000D02*
X169771000Y-125030000D01*
X169811000Y-118822000D02*
X169811000Y-120880000D01*
X169811000Y-122960000D02*
X169811000Y-125018000D01*
X169851000Y-118834000D02*
X169851000Y-120880000D01*
X169851000Y-122960000D02*
X169851000Y-125006000D01*
X169891000Y-118846000D02*
X169891000Y-120880000D01*
X169891000Y-122960000D02*
X169891000Y-124994000D01*
X169931000Y-118859000D02*
X169931000Y-120880000D01*
X169931000Y-122960000D02*
X169931000Y-124981000D01*
X169971000Y-118873000D02*
X169971000Y-120880000D01*
X169971000Y-122960000D02*
X169971000Y-124967000D01*
X170011000Y-118887000D02*
X170011000Y-120880000D01*
X170011000Y-122960000D02*
X170011000Y-124953000D01*
X170051000Y-118902000D02*
X170051000Y-120880000D01*
X170051000Y-122960000D02*
X170051000Y-124938000D01*
X170091000Y-118918000D02*
X170091000Y-120880000D01*
X170091000Y-122960000D02*
X170091000Y-124922000D01*
X170131000Y-118934000D02*
X170131000Y-120880000D01*
X170131000Y-122960000D02*
X170131000Y-124906000D01*
X170171000Y-118950000D02*
X170171000Y-120880000D01*
X170171000Y-122960000D02*
X170171000Y-124890000D01*
X170211000Y-118968000D02*
X170211000Y-120880000D01*
X170211000Y-122960000D02*
X170211000Y-124872000D01*
X170251000Y-118986000D02*
X170251000Y-120880000D01*
X170251000Y-122960000D02*
X170251000Y-124854000D01*
X170291000Y-119004000D02*
X170291000Y-120880000D01*
X170291000Y-122960000D02*
X170291000Y-124836000D01*
X170331000Y-119024000D02*
X170331000Y-120880000D01*
X170331000Y-122960000D02*
X170331000Y-124816000D01*
X170371000Y-119044000D02*
X170371000Y-120880000D01*
X170371000Y-122960000D02*
X170371000Y-124796000D01*
X170411000Y-119064000D02*
X170411000Y-120880000D01*
X170411000Y-122960000D02*
X170411000Y-124776000D01*
X170451000Y-119086000D02*
X170451000Y-120880000D01*
X170451000Y-122960000D02*
X170451000Y-124754000D01*
X170491000Y-119108000D02*
X170491000Y-120880000D01*
X170491000Y-122960000D02*
X170491000Y-124732000D01*
X170531000Y-119130000D02*
X170531000Y-120880000D01*
X170531000Y-122960000D02*
X170531000Y-124710000D01*
X170571000Y-119154000D02*
X170571000Y-120880000D01*
X170571000Y-122960000D02*
X170571000Y-124686000D01*
X170611000Y-119178000D02*
X170611000Y-120880000D01*
X170611000Y-122960000D02*
X170611000Y-124662000D01*
X170651000Y-119204000D02*
X170651000Y-120880000D01*
X170651000Y-122960000D02*
X170651000Y-124636000D01*
X170691000Y-119230000D02*
X170691000Y-120880000D01*
X170691000Y-122960000D02*
X170691000Y-124610000D01*
X170731000Y-119256000D02*
X170731000Y-120880000D01*
X170731000Y-122960000D02*
X170731000Y-124584000D01*
X170771000Y-119284000D02*
X170771000Y-120880000D01*
X170771000Y-122960000D02*
X170771000Y-124556000D01*
X170811000Y-119313000D02*
X170811000Y-120880000D01*
X170811000Y-122960000D02*
X170811000Y-124527000D01*
X170851000Y-119342000D02*
X170851000Y-120880000D01*
X170851000Y-122960000D02*
X170851000Y-124498000D01*
X170891000Y-119372000D02*
X170891000Y-120880000D01*
X170891000Y-122960000D02*
X170891000Y-124468000D01*
X170931000Y-119404000D02*
X170931000Y-120880000D01*
X170931000Y-122960000D02*
X170931000Y-124436000D01*
X170971000Y-119436000D02*
X170971000Y-120880000D01*
X170971000Y-122960000D02*
X170971000Y-124404000D01*
X171011000Y-119470000D02*
X171011000Y-120880000D01*
X171011000Y-122960000D02*
X171011000Y-124370000D01*
X171051000Y-119504000D02*
X171051000Y-120880000D01*
X171051000Y-122960000D02*
X171051000Y-124336000D01*
X171091000Y-119540000D02*
X171091000Y-120880000D01*
X171091000Y-122960000D02*
X171091000Y-124300000D01*
X171131000Y-119577000D02*
X171131000Y-120880000D01*
X171131000Y-122960000D02*
X171131000Y-124263000D01*
X171171000Y-119615000D02*
X171171000Y-120880000D01*
X171171000Y-122960000D02*
X171171000Y-124225000D01*
X171211000Y-119655000D02*
X171211000Y-124185000D01*
X171251000Y-119696000D02*
X171251000Y-124144000D01*
X171291000Y-119738000D02*
X171291000Y-124102000D01*
X171331000Y-119783000D02*
X171331000Y-124057000D01*
X171371000Y-119828000D02*
X171371000Y-124012000D01*
X171411000Y-119876000D02*
X171411000Y-123964000D01*
X171451000Y-119925000D02*
X171451000Y-123915000D01*
X171491000Y-119976000D02*
X171491000Y-123864000D01*
X171531000Y-120030000D02*
X171531000Y-123810000D01*
X171571000Y-120086000D02*
X171571000Y-123754000D01*
X171611000Y-120144000D02*
X171611000Y-123696000D01*
X171651000Y-120206000D02*
X171651000Y-123634000D01*
X171691000Y-120270000D02*
X171691000Y-123570000D01*
X171731000Y-120339000D02*
X171731000Y-123501000D01*
X171771000Y-120411000D02*
X171771000Y-123429000D01*
X171811000Y-120488000D02*
X171811000Y-123352000D01*
X171851000Y-120570000D02*
X171851000Y-123270000D01*
X171891000Y-120658000D02*
X171891000Y-123182000D01*
X171931000Y-120755000D02*
X171931000Y-123085000D01*
X171971000Y-120861000D02*
X171971000Y-122979000D01*
X172011000Y-120980000D02*
X172011000Y-122860000D01*
X172051000Y-121118000D02*
X172051000Y-122722000D01*
X172091000Y-121287000D02*
X172091000Y-122553000D01*
X172131000Y-121518000D02*
X172131000Y-122322000D01*
X165389759Y-120081000D02*
X166019759Y-120081000D01*
X165704759Y-119766000D02*
X165704759Y-120396000D01*
G04 #@! TO.C,C10*
X169060000Y-104310000D02*
X176300000Y-104310000D01*
X169060000Y-109050000D02*
X176300000Y-109050000D01*
X169060000Y-104310000D02*
X169060000Y-109050000D01*
X176300000Y-104310000D02*
X176300000Y-109050000D01*
G04 #@! TO.C,D1*
X128971522Y-85658478D02*
G75*
G03X133410000Y-83820000I1838478J1838478D01*
G01*
X128971522Y-81981522D02*
G75*
G02X133410000Y-83820000I1838478J-1838478D01*
G01*
X128960000Y-82020000D02*
X128960000Y-85620000D01*
D10*
G04 #@! TO.C,IC1*
X155470000Y-102870000D02*
X163575000Y-102870000D01*
X156465000Y-113030000D02*
X163575000Y-113030000D01*
G04 #@! TO.C,IC2*
X188540000Y-106680000D02*
X180435000Y-106680000D01*
X187545000Y-96520000D02*
X180435000Y-96520000D01*
D12*
G04 #@! TO.C,J1*
X101670000Y-108110000D02*
X114470000Y-108110000D01*
X101670000Y-98510000D02*
X101670000Y-108110000D01*
X114470000Y-98510000D02*
X101670000Y-98510000D01*
D10*
G04 #@! TO.C,J3*
X188380000Y-73100000D02*
G75*
G02X188380000Y-72900000I0J100000D01*
G01*
X188380000Y-72900000D02*
G75*
G02X188380000Y-73100000I0J-100000D01*
G01*
X188380000Y-72900000D02*
X188380000Y-72900000D01*
X188380000Y-73100000D02*
X188380000Y-73100000D01*
D12*
X189480000Y-73660000D02*
X189480000Y-74200000D01*
X202280000Y-73660000D02*
X189480000Y-73660000D01*
X202280000Y-73700000D02*
X202280000Y-73660000D01*
X202280000Y-78740000D02*
X202280000Y-73700000D01*
X189480000Y-78740000D02*
X202280000Y-78740000D01*
X189480000Y-78200000D02*
X189480000Y-78740000D01*
D11*
G04 #@! TO.C,Q1*
X132648478Y-104841522D02*
G75*
G03X128210000Y-106680000I-1838478J-1838478D01*
G01*
X132648478Y-108518478D02*
G75*
G02X128210000Y-106680000I-1838478J1838478D01*
G01*
X132660000Y-108480000D02*
X132660000Y-104880000D01*
G04 #@! TO.C,Q2*
X119961000Y-72930000D02*
X119961000Y-74440000D01*
X116260000Y-72930000D02*
X116260000Y-74440000D01*
X112990000Y-74440000D02*
X123230000Y-74440000D01*
X123230000Y-72930000D02*
X123230000Y-77571000D01*
X112990000Y-72930000D02*
X112990000Y-77571000D01*
X112990000Y-77571000D02*
X123230000Y-77571000D01*
X112990000Y-72930000D02*
X123230000Y-72930000D01*
G04 #@! TO.C,Q3*
X161250000Y-72930000D02*
X171490000Y-72930000D01*
X161250000Y-77571000D02*
X171490000Y-77571000D01*
X161250000Y-72930000D02*
X161250000Y-77571000D01*
X171490000Y-72930000D02*
X171490000Y-77571000D01*
X161250000Y-74440000D02*
X171490000Y-74440000D01*
X164520000Y-72930000D02*
X164520000Y-74440000D01*
X168221000Y-72930000D02*
X168221000Y-74440000D01*
G04 #@! TO.C,R2*
X106850000Y-90170000D02*
X106960000Y-90170000D01*
X119210000Y-90170000D02*
X119100000Y-90170000D01*
X106960000Y-92540000D02*
X119100000Y-92540000D01*
X106960000Y-87800000D02*
X106960000Y-92540000D01*
X119100000Y-87800000D02*
X106960000Y-87800000D01*
X119100000Y-92540000D02*
X119100000Y-87800000D01*
G04 #@! TO.C,R4*
X138970000Y-82450000D02*
X138970000Y-85190000D01*
X138970000Y-85190000D02*
X145510000Y-85190000D01*
X145510000Y-85190000D02*
X145510000Y-82450000D01*
X145510000Y-82450000D02*
X138970000Y-82450000D01*
X138200000Y-83820000D02*
X138970000Y-83820000D01*
X146280000Y-83820000D02*
X145510000Y-83820000D01*
G04 #@! TO.C,R5*
X138970000Y-87530000D02*
X138970000Y-90270000D01*
X138970000Y-90270000D02*
X145510000Y-90270000D01*
X145510000Y-90270000D02*
X145510000Y-87530000D01*
X145510000Y-87530000D02*
X138970000Y-87530000D01*
X138200000Y-88900000D02*
X138970000Y-88900000D01*
X146280000Y-88900000D02*
X145510000Y-88900000D01*
G04 #@! TO.C,R6*
X141510000Y-92610000D02*
X141510000Y-95350000D01*
X141510000Y-95350000D02*
X148050000Y-95350000D01*
X148050000Y-95350000D02*
X148050000Y-92610000D01*
X148050000Y-92610000D02*
X141510000Y-92610000D01*
X140740000Y-93980000D02*
X141510000Y-93980000D01*
X148820000Y-93980000D02*
X148050000Y-93980000D01*
G04 #@! TO.C,R10*
X186150000Y-113130000D02*
X186150000Y-110390000D01*
X186150000Y-110390000D02*
X179610000Y-110390000D01*
X179610000Y-110390000D02*
X179610000Y-113130000D01*
X179610000Y-113130000D02*
X186150000Y-113130000D01*
X186920000Y-111760000D02*
X186150000Y-111760000D01*
X178840000Y-111760000D02*
X179610000Y-111760000D01*
D12*
G04 #@! TO.C,U1*
X147340000Y-73800000D02*
X147340000Y-74200000D01*
X146940000Y-73800000D02*
X147340000Y-73800000D01*
X137140000Y-73800000D02*
X137540000Y-73800000D01*
X137140000Y-73800000D02*
X137140000Y-74200000D01*
X137140000Y-78600000D02*
X137540000Y-78600000D01*
X137140000Y-78600000D02*
X137140000Y-74200000D01*
X147340000Y-78600000D02*
X146940000Y-78600000D01*
X147340000Y-78600000D02*
X147340000Y-78200000D01*
X137140000Y-74910000D02*
X147240000Y-74910000D01*
D11*
G04 #@! TO.C,U2*
X121218478Y-113731522D02*
G75*
G03X116780000Y-115570000I-1838478J-1838478D01*
G01*
X121218478Y-117408478D02*
G75*
G02X116780000Y-115570000I-1838478J1838478D01*
G01*
X121230000Y-117370000D02*
X121230000Y-113770000D01*
G04 #@! TO.C,U3*
X123930000Y-125040000D02*
X127530000Y-125040000D01*
X123891522Y-125028478D02*
G75*
G02X125730000Y-120590000I1838478J1838478D01*
G01*
X127568478Y-125028478D02*
G75*
G03X125730000Y-120590000I-1838478J1838478D01*
G01*
D12*
G04 #@! TO.C,VR1*
X157250000Y-117150000D02*
G75*
G02X157250000Y-117050000I0J50000D01*
G01*
X157250000Y-117050000D02*
G75*
G02X157250000Y-117150000I0J-50000D01*
G01*
X157250000Y-117050000D02*
X157250000Y-117050000D01*
X157250000Y-117150000D02*
X157250000Y-117150000D01*
X160845000Y-117475000D02*
X158250000Y-117475000D01*
X160750000Y-123825000D02*
X158250000Y-123825000D01*
X160845000Y-123825000D02*
X160845000Y-117475000D01*
G04 #@! TO.C,VR2*
X181165000Y-123825000D02*
X181165000Y-117475000D01*
X181070000Y-123825000D02*
X178570000Y-123825000D01*
X181165000Y-117475000D02*
X178570000Y-117475000D01*
X177570000Y-117150000D02*
X177570000Y-117150000D01*
X177570000Y-117050000D02*
X177570000Y-117050000D01*
X177570000Y-117050000D02*
G75*
G02X177570000Y-117150000I0J-50000D01*
G01*
X177570000Y-117150000D02*
G75*
G02X177570000Y-117050000I0J50000D01*
G01*
D11*
G04 #@! TO.C,R12*
X193500000Y-123260000D02*
X196680000Y-123260000D01*
X193500000Y-85020000D02*
X193500000Y-123260000D01*
X196680000Y-85020000D02*
X193500000Y-85020000D01*
X202740000Y-123260000D02*
X199560000Y-123260000D01*
X202740000Y-85020000D02*
X202740000Y-123260000D01*
X199560000Y-85020000D02*
X202740000Y-85020000D01*
G04 #@! TO.C,D3*
X159370000Y-90410000D02*
X163210000Y-90410000D01*
X159370000Y-90170000D02*
X163210000Y-90170000D01*
X159370000Y-90290000D02*
X163210000Y-90290000D01*
X163210000Y-83710000D02*
X162730000Y-83710000D01*
X163210000Y-91550000D02*
X163210000Y-83710000D01*
X162730000Y-91550000D02*
X163210000Y-91550000D01*
X159370000Y-83710000D02*
X159850000Y-83710000D01*
X159370000Y-91550000D02*
X159370000Y-83710000D01*
X159850000Y-91550000D02*
X159370000Y-91550000D01*
G04 #@! TO.C,R11*
X167640000Y-98020000D02*
X167640000Y-97250000D01*
X167640000Y-89940000D02*
X167640000Y-90710000D01*
X169010000Y-97250000D02*
X169010000Y-90710000D01*
X166270000Y-97250000D02*
X169010000Y-97250000D01*
X166270000Y-90710000D02*
X166270000Y-97250000D01*
X169010000Y-90710000D02*
X166270000Y-90710000D01*
G04 #@! TO.C,R8*
X162020000Y-99160000D02*
X162020000Y-98830000D01*
X155480000Y-99160000D02*
X162020000Y-99160000D01*
X155480000Y-98830000D02*
X155480000Y-99160000D01*
X162020000Y-96420000D02*
X162020000Y-96750000D01*
X155480000Y-96420000D02*
X162020000Y-96420000D01*
X155480000Y-96750000D02*
X155480000Y-96420000D01*
G04 #@! TO.C,R9*
X173890000Y-90900000D02*
X174220000Y-90900000D01*
X173890000Y-84360000D02*
X173890000Y-90900000D01*
X174220000Y-84360000D02*
X173890000Y-84360000D01*
X176630000Y-90900000D02*
X176300000Y-90900000D01*
X176630000Y-84360000D02*
X176630000Y-90900000D01*
X176300000Y-84360000D02*
X176630000Y-84360000D01*
G04 #@! TO.C,C11*
X137546000Y-104805241D02*
X138176000Y-104805241D01*
X137861000Y-105120241D02*
X137861000Y-104490241D01*
X139298000Y-98379000D02*
X140102000Y-98379000D01*
X139067000Y-98419000D02*
X140333000Y-98419000D01*
X138898000Y-98459000D02*
X140502000Y-98459000D01*
X138760000Y-98499000D02*
X140640000Y-98499000D01*
X138641000Y-98539000D02*
X140759000Y-98539000D01*
X138535000Y-98579000D02*
X140865000Y-98579000D01*
X138438000Y-98619000D02*
X140962000Y-98619000D01*
X138350000Y-98659000D02*
X141050000Y-98659000D01*
X138268000Y-98699000D02*
X141132000Y-98699000D01*
X138191000Y-98739000D02*
X141209000Y-98739000D01*
X138119000Y-98779000D02*
X141281000Y-98779000D01*
X138050000Y-98819000D02*
X141350000Y-98819000D01*
X137986000Y-98859000D02*
X141414000Y-98859000D01*
X137924000Y-98899000D02*
X141476000Y-98899000D01*
X137866000Y-98939000D02*
X141534000Y-98939000D01*
X137810000Y-98979000D02*
X141590000Y-98979000D01*
X137756000Y-99019000D02*
X141644000Y-99019000D01*
X137705000Y-99059000D02*
X141695000Y-99059000D01*
X137656000Y-99099000D02*
X141744000Y-99099000D01*
X137608000Y-99139000D02*
X141792000Y-99139000D01*
X137563000Y-99179000D02*
X141837000Y-99179000D01*
X137518000Y-99219000D02*
X141882000Y-99219000D01*
X137476000Y-99259000D02*
X141924000Y-99259000D01*
X137435000Y-99299000D02*
X141965000Y-99299000D01*
X140740000Y-99339000D02*
X142005000Y-99339000D01*
X137395000Y-99339000D02*
X138660000Y-99339000D01*
X140740000Y-99379000D02*
X142043000Y-99379000D01*
X137357000Y-99379000D02*
X138660000Y-99379000D01*
X140740000Y-99419000D02*
X142080000Y-99419000D01*
X137320000Y-99419000D02*
X138660000Y-99419000D01*
X140740000Y-99459000D02*
X142116000Y-99459000D01*
X137284000Y-99459000D02*
X138660000Y-99459000D01*
X140740000Y-99499000D02*
X142150000Y-99499000D01*
X137250000Y-99499000D02*
X138660000Y-99499000D01*
X140740000Y-99539000D02*
X142184000Y-99539000D01*
X137216000Y-99539000D02*
X138660000Y-99539000D01*
X140740000Y-99579000D02*
X142216000Y-99579000D01*
X137184000Y-99579000D02*
X138660000Y-99579000D01*
X140740000Y-99619000D02*
X142248000Y-99619000D01*
X137152000Y-99619000D02*
X138660000Y-99619000D01*
X140740000Y-99659000D02*
X142278000Y-99659000D01*
X137122000Y-99659000D02*
X138660000Y-99659000D01*
X140740000Y-99699000D02*
X142307000Y-99699000D01*
X137093000Y-99699000D02*
X138660000Y-99699000D01*
X140740000Y-99739000D02*
X142336000Y-99739000D01*
X137064000Y-99739000D02*
X138660000Y-99739000D01*
X140740000Y-99779000D02*
X142364000Y-99779000D01*
X137036000Y-99779000D02*
X138660000Y-99779000D01*
X140740000Y-99819000D02*
X142390000Y-99819000D01*
X137010000Y-99819000D02*
X138660000Y-99819000D01*
X140740000Y-99859000D02*
X142416000Y-99859000D01*
X136984000Y-99859000D02*
X138660000Y-99859000D01*
X140740000Y-99899000D02*
X142442000Y-99899000D01*
X136958000Y-99899000D02*
X138660000Y-99899000D01*
X140740000Y-99939000D02*
X142466000Y-99939000D01*
X136934000Y-99939000D02*
X138660000Y-99939000D01*
X140740000Y-99979000D02*
X142490000Y-99979000D01*
X136910000Y-99979000D02*
X138660000Y-99979000D01*
X140740000Y-100019000D02*
X142512000Y-100019000D01*
X136888000Y-100019000D02*
X138660000Y-100019000D01*
X140740000Y-100059000D02*
X142534000Y-100059000D01*
X136866000Y-100059000D02*
X138660000Y-100059000D01*
X140740000Y-100099000D02*
X142556000Y-100099000D01*
X136844000Y-100099000D02*
X138660000Y-100099000D01*
X140740000Y-100139000D02*
X142576000Y-100139000D01*
X136824000Y-100139000D02*
X138660000Y-100139000D01*
X140740000Y-100179000D02*
X142596000Y-100179000D01*
X136804000Y-100179000D02*
X138660000Y-100179000D01*
X140740000Y-100219000D02*
X142616000Y-100219000D01*
X136784000Y-100219000D02*
X138660000Y-100219000D01*
X140740000Y-100259000D02*
X142634000Y-100259000D01*
X136766000Y-100259000D02*
X138660000Y-100259000D01*
X140740000Y-100299000D02*
X142652000Y-100299000D01*
X136748000Y-100299000D02*
X138660000Y-100299000D01*
X140740000Y-100339000D02*
X142670000Y-100339000D01*
X136730000Y-100339000D02*
X138660000Y-100339000D01*
X140740000Y-100379000D02*
X142686000Y-100379000D01*
X136714000Y-100379000D02*
X138660000Y-100379000D01*
X140740000Y-100419000D02*
X142702000Y-100419000D01*
X136698000Y-100419000D02*
X138660000Y-100419000D01*
X140740000Y-100459000D02*
X142718000Y-100459000D01*
X136682000Y-100459000D02*
X138660000Y-100459000D01*
X140740000Y-100499000D02*
X142733000Y-100499000D01*
X136667000Y-100499000D02*
X138660000Y-100499000D01*
X140740000Y-100539000D02*
X142747000Y-100539000D01*
X136653000Y-100539000D02*
X138660000Y-100539000D01*
X140740000Y-100579000D02*
X142761000Y-100579000D01*
X136639000Y-100579000D02*
X138660000Y-100579000D01*
X140740000Y-100619000D02*
X142774000Y-100619000D01*
X136626000Y-100619000D02*
X138660000Y-100619000D01*
X140740000Y-100659000D02*
X142786000Y-100659000D01*
X136614000Y-100659000D02*
X138660000Y-100659000D01*
X140740000Y-100699000D02*
X142798000Y-100699000D01*
X136602000Y-100699000D02*
X138660000Y-100699000D01*
X140740000Y-100739000D02*
X142810000Y-100739000D01*
X136590000Y-100739000D02*
X138660000Y-100739000D01*
X140740000Y-100779000D02*
X142821000Y-100779000D01*
X136579000Y-100779000D02*
X138660000Y-100779000D01*
X140740000Y-100819000D02*
X142831000Y-100819000D01*
X136569000Y-100819000D02*
X138660000Y-100819000D01*
X140740000Y-100859000D02*
X142841000Y-100859000D01*
X136559000Y-100859000D02*
X138660000Y-100859000D01*
X140740000Y-100899000D02*
X142850000Y-100899000D01*
X136550000Y-100899000D02*
X138660000Y-100899000D01*
X140740000Y-100940000D02*
X142859000Y-100940000D01*
X136541000Y-100940000D02*
X138660000Y-100940000D01*
X140740000Y-100980000D02*
X142867000Y-100980000D01*
X136533000Y-100980000D02*
X138660000Y-100980000D01*
X140740000Y-101020000D02*
X142875000Y-101020000D01*
X136525000Y-101020000D02*
X138660000Y-101020000D01*
X140740000Y-101060000D02*
X142882000Y-101060000D01*
X136518000Y-101060000D02*
X138660000Y-101060000D01*
X140740000Y-101100000D02*
X142889000Y-101100000D01*
X136511000Y-101100000D02*
X138660000Y-101100000D01*
X140740000Y-101140000D02*
X142895000Y-101140000D01*
X136505000Y-101140000D02*
X138660000Y-101140000D01*
X140740000Y-101180000D02*
X142901000Y-101180000D01*
X136499000Y-101180000D02*
X138660000Y-101180000D01*
X140740000Y-101220000D02*
X142906000Y-101220000D01*
X136494000Y-101220000D02*
X138660000Y-101220000D01*
X140740000Y-101260000D02*
X142911000Y-101260000D01*
X136489000Y-101260000D02*
X138660000Y-101260000D01*
X140740000Y-101300000D02*
X142915000Y-101300000D01*
X136485000Y-101300000D02*
X138660000Y-101300000D01*
X140740000Y-101340000D02*
X142918000Y-101340000D01*
X136482000Y-101340000D02*
X138660000Y-101340000D01*
X140740000Y-101380000D02*
X142922000Y-101380000D01*
X136478000Y-101380000D02*
X138660000Y-101380000D01*
X136476000Y-101420000D02*
X142924000Y-101420000D01*
X136473000Y-101460000D02*
X142927000Y-101460000D01*
X136472000Y-101500000D02*
X142928000Y-101500000D01*
X136470000Y-101540000D02*
X142930000Y-101540000D01*
X136470000Y-101580000D02*
X142930000Y-101580000D01*
X136470000Y-101620000D02*
X142930000Y-101620000D01*
X142970000Y-101620000D02*
G75*
G03X142970000Y-101620000I-3270000J0D01*
G01*
G04 #@! TO.C,R1*
X138200000Y-109760000D02*
X138530000Y-109760000D01*
X138530000Y-109760000D02*
X138530000Y-116300000D01*
X138530000Y-116300000D02*
X138200000Y-116300000D01*
X136120000Y-109760000D02*
X135790000Y-109760000D01*
X135790000Y-109760000D02*
X135790000Y-116300000D01*
X135790000Y-116300000D02*
X136120000Y-116300000D01*
G04 #@! TO.C,R13*
X142780000Y-107850000D02*
X142780000Y-108180000D01*
X149320000Y-107850000D02*
X142780000Y-107850000D01*
X149320000Y-108180000D02*
X149320000Y-107850000D01*
X142780000Y-110590000D02*
X142780000Y-110260000D01*
X149320000Y-110590000D02*
X142780000Y-110590000D01*
X149320000Y-110260000D02*
X149320000Y-110590000D01*
G04 #@! TO.C,R3*
X120110000Y-84860000D02*
X120110000Y-85190000D01*
X120110000Y-85190000D02*
X113570000Y-85190000D01*
X113570000Y-85190000D02*
X113570000Y-84860000D01*
X120110000Y-82780000D02*
X120110000Y-82450000D01*
X120110000Y-82450000D02*
X113570000Y-82450000D01*
X113570000Y-82450000D02*
X113570000Y-82780000D01*
G04 #@! TO.C,R7*
D13*
X178252380Y-87796666D02*
X177776190Y-88130000D01*
X178252380Y-88368095D02*
X177252380Y-88368095D01*
X177252380Y-87987142D01*
X177300000Y-87891904D01*
X177347619Y-87844285D01*
X177442857Y-87796666D01*
X177585714Y-87796666D01*
X177680952Y-87844285D01*
X177728571Y-87891904D01*
X177776190Y-87987142D01*
X177776190Y-88368095D01*
X177252380Y-87463333D02*
X177252380Y-86796666D01*
X178252380Y-87225238D01*
G04 #@! TO.C,D2*
X170711904Y-110942380D02*
X170711904Y-109942380D01*
X170950000Y-109942380D01*
X171092857Y-109990000D01*
X171188095Y-110085238D01*
X171235714Y-110180476D01*
X171283333Y-110370952D01*
X171283333Y-110513809D01*
X171235714Y-110704285D01*
X171188095Y-110799523D01*
X171092857Y-110894761D01*
X170950000Y-110942380D01*
X170711904Y-110942380D01*
X171664285Y-110037619D02*
X171711904Y-109990000D01*
X171807142Y-109942380D01*
X172045238Y-109942380D01*
X172140476Y-109990000D01*
X172188095Y-110037619D01*
X172235714Y-110132857D01*
X172235714Y-110228095D01*
X172188095Y-110370952D01*
X171616666Y-110942380D01*
X172235714Y-110942380D01*
G04 #@! TO.C,J2*
D14*
X141544523Y-119803333D02*
X142451666Y-119803333D01*
X142633095Y-119863809D01*
X142754047Y-119984761D01*
X142814523Y-120166190D01*
X142814523Y-120287142D01*
X141665476Y-119259047D02*
X141605000Y-119198571D01*
X141544523Y-119077619D01*
X141544523Y-118775238D01*
X141605000Y-118654285D01*
X141665476Y-118593809D01*
X141786428Y-118533333D01*
X141907380Y-118533333D01*
X142088809Y-118593809D01*
X142814523Y-119319523D01*
X142814523Y-118533333D01*
G04 #@! TO.C,C1*
D13*
X123547142Y-95376666D02*
X123594761Y-95424285D01*
X123642380Y-95567142D01*
X123642380Y-95662380D01*
X123594761Y-95805238D01*
X123499523Y-95900476D01*
X123404285Y-95948095D01*
X123213809Y-95995714D01*
X123070952Y-95995714D01*
X122880476Y-95948095D01*
X122785238Y-95900476D01*
X122690000Y-95805238D01*
X122642380Y-95662380D01*
X122642380Y-95567142D01*
X122690000Y-95424285D01*
X122737619Y-95376666D01*
X123642380Y-94424285D02*
X123642380Y-94995714D01*
X123642380Y-94710000D02*
X122642380Y-94710000D01*
X122785238Y-94805238D01*
X122880476Y-94900476D01*
X122928095Y-94995714D01*
G04 #@! TO.C,C2*
X109073333Y-110847142D02*
X109025714Y-110894761D01*
X108882857Y-110942380D01*
X108787619Y-110942380D01*
X108644761Y-110894761D01*
X108549523Y-110799523D01*
X108501904Y-110704285D01*
X108454285Y-110513809D01*
X108454285Y-110370952D01*
X108501904Y-110180476D01*
X108549523Y-110085238D01*
X108644761Y-109990000D01*
X108787619Y-109942380D01*
X108882857Y-109942380D01*
X109025714Y-109990000D01*
X109073333Y-110037619D01*
X109454285Y-110037619D02*
X109501904Y-109990000D01*
X109597142Y-109942380D01*
X109835238Y-109942380D01*
X109930476Y-109990000D01*
X109978095Y-110037619D01*
X110025714Y-110132857D01*
X110025714Y-110228095D01*
X109978095Y-110370952D01*
X109406666Y-110942380D01*
X110025714Y-110942380D01*
G04 #@! TO.C,C3*
X115403333Y-119737142D02*
X115355714Y-119784761D01*
X115212857Y-119832380D01*
X115117619Y-119832380D01*
X114974761Y-119784761D01*
X114879523Y-119689523D01*
X114831904Y-119594285D01*
X114784285Y-119403809D01*
X114784285Y-119260952D01*
X114831904Y-119070476D01*
X114879523Y-118975238D01*
X114974761Y-118880000D01*
X115117619Y-118832380D01*
X115212857Y-118832380D01*
X115355714Y-118880000D01*
X115403333Y-118927619D01*
X115736666Y-118832380D02*
X116355714Y-118832380D01*
X116022380Y-119213333D01*
X116165238Y-119213333D01*
X116260476Y-119260952D01*
X116308095Y-119308571D01*
X116355714Y-119403809D01*
X116355714Y-119641904D01*
X116308095Y-119737142D01*
X116260476Y-119784761D01*
X116165238Y-119832380D01*
X115879523Y-119832380D01*
X115784285Y-119784761D01*
X115736666Y-119737142D01*
G04 #@! TO.C,C4*
X128103333Y-110847142D02*
X128055714Y-110894761D01*
X127912857Y-110942380D01*
X127817619Y-110942380D01*
X127674761Y-110894761D01*
X127579523Y-110799523D01*
X127531904Y-110704285D01*
X127484285Y-110513809D01*
X127484285Y-110370952D01*
X127531904Y-110180476D01*
X127579523Y-110085238D01*
X127674761Y-109990000D01*
X127817619Y-109942380D01*
X127912857Y-109942380D01*
X128055714Y-109990000D01*
X128103333Y-110037619D01*
X128960476Y-110275714D02*
X128960476Y-110942380D01*
X128722380Y-109894761D02*
X128484285Y-110609047D01*
X129103333Y-110609047D01*
G04 #@! TO.C,C5*
X135723333Y-119737142D02*
X135675714Y-119784761D01*
X135532857Y-119832380D01*
X135437619Y-119832380D01*
X135294761Y-119784761D01*
X135199523Y-119689523D01*
X135151904Y-119594285D01*
X135104285Y-119403809D01*
X135104285Y-119260952D01*
X135151904Y-119070476D01*
X135199523Y-118975238D01*
X135294761Y-118880000D01*
X135437619Y-118832380D01*
X135532857Y-118832380D01*
X135675714Y-118880000D01*
X135723333Y-118927619D01*
X136628095Y-118832380D02*
X136151904Y-118832380D01*
X136104285Y-119308571D01*
X136151904Y-119260952D01*
X136247142Y-119213333D01*
X136485238Y-119213333D01*
X136580476Y-119260952D01*
X136628095Y-119308571D01*
X136675714Y-119403809D01*
X136675714Y-119641904D01*
X136628095Y-119737142D01*
X136580476Y-119784761D01*
X136485238Y-119832380D01*
X136247142Y-119832380D01*
X136151904Y-119784761D01*
X136104285Y-119737142D01*
G04 #@! TO.C,C6*
X153483333Y-83587142D02*
X153435714Y-83634761D01*
X153292857Y-83682380D01*
X153197619Y-83682380D01*
X153054761Y-83634761D01*
X152959523Y-83539523D01*
X152911904Y-83444285D01*
X152864285Y-83253809D01*
X152864285Y-83110952D01*
X152911904Y-82920476D01*
X152959523Y-82825238D01*
X153054761Y-82730000D01*
X153197619Y-82682380D01*
X153292857Y-82682380D01*
X153435714Y-82730000D01*
X153483333Y-82777619D01*
X154340476Y-82682380D02*
X154150000Y-82682380D01*
X154054761Y-82730000D01*
X154007142Y-82777619D01*
X153911904Y-82920476D01*
X153864285Y-83110952D01*
X153864285Y-83491904D01*
X153911904Y-83587142D01*
X153959523Y-83634761D01*
X154054761Y-83682380D01*
X154245238Y-83682380D01*
X154340476Y-83634761D01*
X154388095Y-83587142D01*
X154435714Y-83491904D01*
X154435714Y-83253809D01*
X154388095Y-83158571D01*
X154340476Y-83110952D01*
X154245238Y-83063333D01*
X154054761Y-83063333D01*
X153959523Y-83110952D01*
X153911904Y-83158571D01*
X153864285Y-83253809D01*
G04 #@! TO.C,C7*
X170537142Y-97956666D02*
X170584761Y-98004285D01*
X170632380Y-98147142D01*
X170632380Y-98242380D01*
X170584761Y-98385238D01*
X170489523Y-98480476D01*
X170394285Y-98528095D01*
X170203809Y-98575714D01*
X170060952Y-98575714D01*
X169870476Y-98528095D01*
X169775238Y-98480476D01*
X169680000Y-98385238D01*
X169632380Y-98242380D01*
X169632380Y-98147142D01*
X169680000Y-98004285D01*
X169727619Y-97956666D01*
X169632380Y-97623333D02*
X169632380Y-96956666D01*
X170632380Y-97385238D01*
G04 #@! TO.C,C8*
X144547142Y-101786666D02*
X144594761Y-101834285D01*
X144642380Y-101977142D01*
X144642380Y-102072380D01*
X144594761Y-102215238D01*
X144499523Y-102310476D01*
X144404285Y-102358095D01*
X144213809Y-102405714D01*
X144070952Y-102405714D01*
X143880476Y-102358095D01*
X143785238Y-102310476D01*
X143690000Y-102215238D01*
X143642380Y-102072380D01*
X143642380Y-101977142D01*
X143690000Y-101834285D01*
X143737619Y-101786666D01*
X144070952Y-101215238D02*
X144023333Y-101310476D01*
X143975714Y-101358095D01*
X143880476Y-101405714D01*
X143832857Y-101405714D01*
X143737619Y-101358095D01*
X143690000Y-101310476D01*
X143642380Y-101215238D01*
X143642380Y-101024761D01*
X143690000Y-100929523D01*
X143737619Y-100881904D01*
X143832857Y-100834285D01*
X143880476Y-100834285D01*
X143975714Y-100881904D01*
X144023333Y-100929523D01*
X144070952Y-101024761D01*
X144070952Y-101215238D01*
X144118571Y-101310476D01*
X144166190Y-101358095D01*
X144261428Y-101405714D01*
X144451904Y-101405714D01*
X144547142Y-101358095D01*
X144594761Y-101310476D01*
X144642380Y-101215238D01*
X144642380Y-101024761D01*
X144594761Y-100929523D01*
X144547142Y-100881904D01*
X144451904Y-100834285D01*
X144261428Y-100834285D01*
X144166190Y-100881904D01*
X144118571Y-100929523D01*
X144070952Y-101024761D01*
G04 #@! TO.C,C9*
X168723333Y-117877142D02*
X168675714Y-117924761D01*
X168532857Y-117972380D01*
X168437619Y-117972380D01*
X168294761Y-117924761D01*
X168199523Y-117829523D01*
X168151904Y-117734285D01*
X168104285Y-117543809D01*
X168104285Y-117400952D01*
X168151904Y-117210476D01*
X168199523Y-117115238D01*
X168294761Y-117020000D01*
X168437619Y-116972380D01*
X168532857Y-116972380D01*
X168675714Y-117020000D01*
X168723333Y-117067619D01*
X169199523Y-117972380D02*
X169390000Y-117972380D01*
X169485238Y-117924761D01*
X169532857Y-117877142D01*
X169628095Y-117734285D01*
X169675714Y-117543809D01*
X169675714Y-117162857D01*
X169628095Y-117067619D01*
X169580476Y-117020000D01*
X169485238Y-116972380D01*
X169294761Y-116972380D01*
X169199523Y-117020000D01*
X169151904Y-117067619D01*
X169104285Y-117162857D01*
X169104285Y-117400952D01*
X169151904Y-117496190D01*
X169199523Y-117543809D01*
X169294761Y-117591428D01*
X169485238Y-117591428D01*
X169580476Y-117543809D01*
X169628095Y-117496190D01*
X169675714Y-117400952D01*
G04 #@! TO.C,C10*
X172037142Y-103537142D02*
X171989523Y-103584761D01*
X171846666Y-103632380D01*
X171751428Y-103632380D01*
X171608571Y-103584761D01*
X171513333Y-103489523D01*
X171465714Y-103394285D01*
X171418095Y-103203809D01*
X171418095Y-103060952D01*
X171465714Y-102870476D01*
X171513333Y-102775238D01*
X171608571Y-102680000D01*
X171751428Y-102632380D01*
X171846666Y-102632380D01*
X171989523Y-102680000D01*
X172037142Y-102727619D01*
X172989523Y-103632380D02*
X172418095Y-103632380D01*
X172703809Y-103632380D02*
X172703809Y-102632380D01*
X172608571Y-102775238D01*
X172513333Y-102870476D01*
X172418095Y-102918095D01*
X173608571Y-102632380D02*
X173703809Y-102632380D01*
X173799047Y-102680000D01*
X173846666Y-102727619D01*
X173894285Y-102822857D01*
X173941904Y-103013333D01*
X173941904Y-103251428D01*
X173894285Y-103441904D01*
X173846666Y-103537142D01*
X173799047Y-103584761D01*
X173703809Y-103632380D01*
X173608571Y-103632380D01*
X173513333Y-103584761D01*
X173465714Y-103537142D01*
X173418095Y-103441904D01*
X173370476Y-103251428D01*
X173370476Y-103013333D01*
X173418095Y-102822857D01*
X173465714Y-102727619D01*
X173513333Y-102680000D01*
X173608571Y-102632380D01*
G04 #@! TO.C,D1*
X127452380Y-84558095D02*
X126452380Y-84558095D01*
X126452380Y-84320000D01*
X126500000Y-84177142D01*
X126595238Y-84081904D01*
X126690476Y-84034285D01*
X126880952Y-83986666D01*
X127023809Y-83986666D01*
X127214285Y-84034285D01*
X127309523Y-84081904D01*
X127404761Y-84177142D01*
X127452380Y-84320000D01*
X127452380Y-84558095D01*
X127452380Y-83034285D02*
X127452380Y-83605714D01*
X127452380Y-83320000D02*
X126452380Y-83320000D01*
X126595238Y-83415238D01*
X126690476Y-83510476D01*
X126738095Y-83605714D01*
G04 #@! TO.C,IC1*
D14*
X158780238Y-102174523D02*
X158780238Y-100904523D01*
X160110714Y-102053571D02*
X160050238Y-102114047D01*
X159868809Y-102174523D01*
X159747857Y-102174523D01*
X159566428Y-102114047D01*
X159445476Y-101993095D01*
X159385000Y-101872142D01*
X159324523Y-101630238D01*
X159324523Y-101448809D01*
X159385000Y-101206904D01*
X159445476Y-101085952D01*
X159566428Y-100965000D01*
X159747857Y-100904523D01*
X159868809Y-100904523D01*
X160050238Y-100965000D01*
X160110714Y-101025476D01*
X161320238Y-102174523D02*
X160594523Y-102174523D01*
X160957380Y-102174523D02*
X160957380Y-100904523D01*
X160836428Y-101085952D01*
X160715476Y-101206904D01*
X160594523Y-101267380D01*
G04 #@! TO.C,IC2*
X182750238Y-95824523D02*
X182750238Y-94554523D01*
X184080714Y-95703571D02*
X184020238Y-95764047D01*
X183838809Y-95824523D01*
X183717857Y-95824523D01*
X183536428Y-95764047D01*
X183415476Y-95643095D01*
X183355000Y-95522142D01*
X183294523Y-95280238D01*
X183294523Y-95098809D01*
X183355000Y-94856904D01*
X183415476Y-94735952D01*
X183536428Y-94615000D01*
X183717857Y-94554523D01*
X183838809Y-94554523D01*
X184020238Y-94615000D01*
X184080714Y-94675476D01*
X184564523Y-94675476D02*
X184625000Y-94615000D01*
X184745952Y-94554523D01*
X185048333Y-94554523D01*
X185169285Y-94615000D01*
X185229761Y-94675476D01*
X185290238Y-94796428D01*
X185290238Y-94917380D01*
X185229761Y-95098809D01*
X184504047Y-95824523D01*
X185290238Y-95824523D01*
G04 #@! TO.C,J1*
X103444523Y-103733333D02*
X104351666Y-103733333D01*
X104533095Y-103793809D01*
X104654047Y-103914761D01*
X104714523Y-104096190D01*
X104714523Y-104217142D01*
X104714523Y-102463333D02*
X104714523Y-103189047D01*
X104714523Y-102826190D02*
X103444523Y-102826190D01*
X103625952Y-102947142D01*
X103746904Y-103068095D01*
X103807380Y-103189047D01*
G04 #@! TO.C,J3*
X198694523Y-76623333D02*
X199601666Y-76623333D01*
X199783095Y-76683809D01*
X199904047Y-76804761D01*
X199964523Y-76986190D01*
X199964523Y-77107142D01*
X198694523Y-76139523D02*
X198694523Y-75353333D01*
X199178333Y-75776666D01*
X199178333Y-75595238D01*
X199238809Y-75474285D01*
X199299285Y-75413809D01*
X199420238Y-75353333D01*
X199722619Y-75353333D01*
X199843571Y-75413809D01*
X199904047Y-75474285D01*
X199964523Y-75595238D01*
X199964523Y-75958095D01*
X199904047Y-76079047D01*
X199843571Y-76139523D01*
G04 #@! TO.C,Q1*
D13*
X127797619Y-106775238D02*
X127750000Y-106870476D01*
X127654761Y-106965714D01*
X127511904Y-107108571D01*
X127464285Y-107203809D01*
X127464285Y-107299047D01*
X127702380Y-107251428D02*
X127654761Y-107346666D01*
X127559523Y-107441904D01*
X127369047Y-107489523D01*
X127035714Y-107489523D01*
X126845238Y-107441904D01*
X126750000Y-107346666D01*
X126702380Y-107251428D01*
X126702380Y-107060952D01*
X126750000Y-106965714D01*
X126845238Y-106870476D01*
X127035714Y-106822857D01*
X127369047Y-106822857D01*
X127559523Y-106870476D01*
X127654761Y-106965714D01*
X127702380Y-107060952D01*
X127702380Y-107251428D01*
X127702380Y-105870476D02*
X127702380Y-106441904D01*
X127702380Y-106156190D02*
X126702380Y-106156190D01*
X126845238Y-106251428D01*
X126940476Y-106346666D01*
X126988095Y-106441904D01*
G04 #@! TO.C,Q2*
X118014761Y-72477619D02*
X117919523Y-72430000D01*
X117824285Y-72334761D01*
X117681428Y-72191904D01*
X117586190Y-72144285D01*
X117490952Y-72144285D01*
X117538571Y-72382380D02*
X117443333Y-72334761D01*
X117348095Y-72239523D01*
X117300476Y-72049047D01*
X117300476Y-71715714D01*
X117348095Y-71525238D01*
X117443333Y-71430000D01*
X117538571Y-71382380D01*
X117729047Y-71382380D01*
X117824285Y-71430000D01*
X117919523Y-71525238D01*
X117967142Y-71715714D01*
X117967142Y-72049047D01*
X117919523Y-72239523D01*
X117824285Y-72334761D01*
X117729047Y-72382380D01*
X117538571Y-72382380D01*
X118348095Y-71477619D02*
X118395714Y-71430000D01*
X118490952Y-71382380D01*
X118729047Y-71382380D01*
X118824285Y-71430000D01*
X118871904Y-71477619D01*
X118919523Y-71572857D01*
X118919523Y-71668095D01*
X118871904Y-71810952D01*
X118300476Y-72382380D01*
X118919523Y-72382380D01*
G04 #@! TO.C,Q3*
X166274761Y-72477619D02*
X166179523Y-72430000D01*
X166084285Y-72334761D01*
X165941428Y-72191904D01*
X165846190Y-72144285D01*
X165750952Y-72144285D01*
X165798571Y-72382380D02*
X165703333Y-72334761D01*
X165608095Y-72239523D01*
X165560476Y-72049047D01*
X165560476Y-71715714D01*
X165608095Y-71525238D01*
X165703333Y-71430000D01*
X165798571Y-71382380D01*
X165989047Y-71382380D01*
X166084285Y-71430000D01*
X166179523Y-71525238D01*
X166227142Y-71715714D01*
X166227142Y-72049047D01*
X166179523Y-72239523D01*
X166084285Y-72334761D01*
X165989047Y-72382380D01*
X165798571Y-72382380D01*
X166560476Y-71382380D02*
X167179523Y-71382380D01*
X166846190Y-71763333D01*
X166989047Y-71763333D01*
X167084285Y-71810952D01*
X167131904Y-71858571D01*
X167179523Y-71953809D01*
X167179523Y-72191904D01*
X167131904Y-72287142D01*
X167084285Y-72334761D01*
X166989047Y-72382380D01*
X166703333Y-72382380D01*
X166608095Y-72334761D01*
X166560476Y-72287142D01*
G04 #@! TO.C,R2*
X112863333Y-86812380D02*
X112530000Y-86336190D01*
X112291904Y-86812380D02*
X112291904Y-85812380D01*
X112672857Y-85812380D01*
X112768095Y-85860000D01*
X112815714Y-85907619D01*
X112863333Y-86002857D01*
X112863333Y-86145714D01*
X112815714Y-86240952D01*
X112768095Y-86288571D01*
X112672857Y-86336190D01*
X112291904Y-86336190D01*
X113244285Y-85907619D02*
X113291904Y-85860000D01*
X113387142Y-85812380D01*
X113625238Y-85812380D01*
X113720476Y-85860000D01*
X113768095Y-85907619D01*
X113815714Y-86002857D01*
X113815714Y-86098095D01*
X113768095Y-86240952D01*
X113196666Y-86812380D01*
X113815714Y-86812380D01*
G04 #@! TO.C,R4*
X142073333Y-81902380D02*
X141740000Y-81426190D01*
X141501904Y-81902380D02*
X141501904Y-80902380D01*
X141882857Y-80902380D01*
X141978095Y-80950000D01*
X142025714Y-80997619D01*
X142073333Y-81092857D01*
X142073333Y-81235714D01*
X142025714Y-81330952D01*
X141978095Y-81378571D01*
X141882857Y-81426190D01*
X141501904Y-81426190D01*
X142930476Y-81235714D02*
X142930476Y-81902380D01*
X142692380Y-80854761D02*
X142454285Y-81569047D01*
X143073333Y-81569047D01*
G04 #@! TO.C,R5*
X142073333Y-86982380D02*
X141740000Y-86506190D01*
X141501904Y-86982380D02*
X141501904Y-85982380D01*
X141882857Y-85982380D01*
X141978095Y-86030000D01*
X142025714Y-86077619D01*
X142073333Y-86172857D01*
X142073333Y-86315714D01*
X142025714Y-86410952D01*
X141978095Y-86458571D01*
X141882857Y-86506190D01*
X141501904Y-86506190D01*
X142978095Y-85982380D02*
X142501904Y-85982380D01*
X142454285Y-86458571D01*
X142501904Y-86410952D01*
X142597142Y-86363333D01*
X142835238Y-86363333D01*
X142930476Y-86410952D01*
X142978095Y-86458571D01*
X143025714Y-86553809D01*
X143025714Y-86791904D01*
X142978095Y-86887142D01*
X142930476Y-86934761D01*
X142835238Y-86982380D01*
X142597142Y-86982380D01*
X142501904Y-86934761D01*
X142454285Y-86887142D01*
G04 #@! TO.C,R6*
X144613333Y-92062380D02*
X144280000Y-91586190D01*
X144041904Y-92062380D02*
X144041904Y-91062380D01*
X144422857Y-91062380D01*
X144518095Y-91110000D01*
X144565714Y-91157619D01*
X144613333Y-91252857D01*
X144613333Y-91395714D01*
X144565714Y-91490952D01*
X144518095Y-91538571D01*
X144422857Y-91586190D01*
X144041904Y-91586190D01*
X145470476Y-91062380D02*
X145280000Y-91062380D01*
X145184761Y-91110000D01*
X145137142Y-91157619D01*
X145041904Y-91300476D01*
X144994285Y-91490952D01*
X144994285Y-91871904D01*
X145041904Y-91967142D01*
X145089523Y-92014761D01*
X145184761Y-92062380D01*
X145375238Y-92062380D01*
X145470476Y-92014761D01*
X145518095Y-91967142D01*
X145565714Y-91871904D01*
X145565714Y-91633809D01*
X145518095Y-91538571D01*
X145470476Y-91490952D01*
X145375238Y-91443333D01*
X145184761Y-91443333D01*
X145089523Y-91490952D01*
X145041904Y-91538571D01*
X144994285Y-91633809D01*
G04 #@! TO.C,R10*
X182237142Y-109672380D02*
X181903809Y-109196190D01*
X181665714Y-109672380D02*
X181665714Y-108672380D01*
X182046666Y-108672380D01*
X182141904Y-108720000D01*
X182189523Y-108767619D01*
X182237142Y-108862857D01*
X182237142Y-109005714D01*
X182189523Y-109100952D01*
X182141904Y-109148571D01*
X182046666Y-109196190D01*
X181665714Y-109196190D01*
X183189523Y-109672380D02*
X182618095Y-109672380D01*
X182903809Y-109672380D02*
X182903809Y-108672380D01*
X182808571Y-108815238D01*
X182713333Y-108910476D01*
X182618095Y-108958095D01*
X183808571Y-108672380D02*
X183903809Y-108672380D01*
X183999047Y-108720000D01*
X184046666Y-108767619D01*
X184094285Y-108862857D01*
X184141904Y-109053333D01*
X184141904Y-109291428D01*
X184094285Y-109481904D01*
X184046666Y-109577142D01*
X183999047Y-109624761D01*
X183903809Y-109672380D01*
X183808571Y-109672380D01*
X183713333Y-109624761D01*
X183665714Y-109577142D01*
X183618095Y-109481904D01*
X183570476Y-109291428D01*
X183570476Y-109053333D01*
X183618095Y-108862857D01*
X183665714Y-108767619D01*
X183713333Y-108720000D01*
X183808571Y-108672380D01*
G04 #@! TO.C,U1*
X141558095Y-72432380D02*
X141558095Y-73241904D01*
X141605714Y-73337142D01*
X141653333Y-73384761D01*
X141748571Y-73432380D01*
X141939047Y-73432380D01*
X142034285Y-73384761D01*
X142081904Y-73337142D01*
X142129523Y-73241904D01*
X142129523Y-72432380D01*
X143129523Y-73432380D02*
X142558095Y-73432380D01*
X142843809Y-73432380D02*
X142843809Y-72432380D01*
X142748571Y-72575238D01*
X142653333Y-72670476D01*
X142558095Y-72718095D01*
G04 #@! TO.C,U2*
X115272380Y-116331904D02*
X116081904Y-116331904D01*
X116177142Y-116284285D01*
X116224761Y-116236666D01*
X116272380Y-116141428D01*
X116272380Y-115950952D01*
X116224761Y-115855714D01*
X116177142Y-115808095D01*
X116081904Y-115760476D01*
X115272380Y-115760476D01*
X115367619Y-115331904D02*
X115320000Y-115284285D01*
X115272380Y-115189047D01*
X115272380Y-114950952D01*
X115320000Y-114855714D01*
X115367619Y-114808095D01*
X115462857Y-114760476D01*
X115558095Y-114760476D01*
X115700952Y-114808095D01*
X116272380Y-115379523D01*
X116272380Y-114760476D01*
G04 #@! TO.C,U3*
X124968095Y-119082380D02*
X124968095Y-119891904D01*
X125015714Y-119987142D01*
X125063333Y-120034761D01*
X125158571Y-120082380D01*
X125349047Y-120082380D01*
X125444285Y-120034761D01*
X125491904Y-119987142D01*
X125539523Y-119891904D01*
X125539523Y-119082380D01*
X125920476Y-119082380D02*
X126539523Y-119082380D01*
X126206190Y-119463333D01*
X126349047Y-119463333D01*
X126444285Y-119510952D01*
X126491904Y-119558571D01*
X126539523Y-119653809D01*
X126539523Y-119891904D01*
X126491904Y-119987142D01*
X126444285Y-120034761D01*
X126349047Y-120082380D01*
X126063333Y-120082380D01*
X125968095Y-120034761D01*
X125920476Y-119987142D01*
G04 #@! TO.C,VR1*
D14*
X154244523Y-122101095D02*
X155514523Y-121677761D01*
X154244523Y-121254428D01*
X155514523Y-120105380D02*
X154909761Y-120528714D01*
X155514523Y-120831095D02*
X154244523Y-120831095D01*
X154244523Y-120347285D01*
X154305000Y-120226333D01*
X154365476Y-120165857D01*
X154486428Y-120105380D01*
X154667857Y-120105380D01*
X154788809Y-120165857D01*
X154849285Y-120226333D01*
X154909761Y-120347285D01*
X154909761Y-120831095D01*
X155514523Y-118895857D02*
X155514523Y-119621571D01*
X155514523Y-119258714D02*
X154244523Y-119258714D01*
X154425952Y-119379666D01*
X154546904Y-119500619D01*
X154607380Y-119621571D01*
G04 #@! TO.C,VR2*
X174564523Y-122101095D02*
X175834523Y-121677761D01*
X174564523Y-121254428D01*
X175834523Y-120105380D02*
X175229761Y-120528714D01*
X175834523Y-120831095D02*
X174564523Y-120831095D01*
X174564523Y-120347285D01*
X174625000Y-120226333D01*
X174685476Y-120165857D01*
X174806428Y-120105380D01*
X174987857Y-120105380D01*
X175108809Y-120165857D01*
X175169285Y-120226333D01*
X175229761Y-120347285D01*
X175229761Y-120831095D01*
X174685476Y-119621571D02*
X174625000Y-119561095D01*
X174564523Y-119440142D01*
X174564523Y-119137761D01*
X174625000Y-119016809D01*
X174685476Y-118956333D01*
X174806428Y-118895857D01*
X174927380Y-118895857D01*
X175108809Y-118956333D01*
X175834523Y-119682047D01*
X175834523Y-118895857D01*
G04 #@! TO.C,R12*
D13*
X192222380Y-104782857D02*
X191746190Y-105116190D01*
X192222380Y-105354285D02*
X191222380Y-105354285D01*
X191222380Y-104973333D01*
X191270000Y-104878095D01*
X191317619Y-104830476D01*
X191412857Y-104782857D01*
X191555714Y-104782857D01*
X191650952Y-104830476D01*
X191698571Y-104878095D01*
X191746190Y-104973333D01*
X191746190Y-105354285D01*
X192222380Y-103830476D02*
X192222380Y-104401904D01*
X192222380Y-104116190D02*
X191222380Y-104116190D01*
X191365238Y-104211428D01*
X191460476Y-104306666D01*
X191508095Y-104401904D01*
X191317619Y-103449523D02*
X191270000Y-103401904D01*
X191222380Y-103306666D01*
X191222380Y-103068571D01*
X191270000Y-102973333D01*
X191317619Y-102925714D01*
X191412857Y-102878095D01*
X191508095Y-102878095D01*
X191650952Y-102925714D01*
X192222380Y-103497142D01*
X192222380Y-102878095D01*
G04 #@! TO.C,D3*
X158822380Y-88368095D02*
X157822380Y-88368095D01*
X157822380Y-88130000D01*
X157870000Y-87987142D01*
X157965238Y-87891904D01*
X158060476Y-87844285D01*
X158250952Y-87796666D01*
X158393809Y-87796666D01*
X158584285Y-87844285D01*
X158679523Y-87891904D01*
X158774761Y-87987142D01*
X158822380Y-88130000D01*
X158822380Y-88368095D01*
X157822380Y-87463333D02*
X157822380Y-86844285D01*
X158203333Y-87177619D01*
X158203333Y-87034761D01*
X158250952Y-86939523D01*
X158298571Y-86891904D01*
X158393809Y-86844285D01*
X158631904Y-86844285D01*
X158727142Y-86891904D01*
X158774761Y-86939523D01*
X158822380Y-87034761D01*
X158822380Y-87320476D01*
X158774761Y-87415714D01*
X158727142Y-87463333D01*
X159202380Y-92971904D02*
X158202380Y-92971904D01*
X159202380Y-92400476D02*
X158630952Y-92829047D01*
X158202380Y-92400476D02*
X158773809Y-92971904D01*
G04 #@! TO.C,R11*
X165552380Y-94622857D02*
X165076190Y-94956190D01*
X165552380Y-95194285D02*
X164552380Y-95194285D01*
X164552380Y-94813333D01*
X164600000Y-94718095D01*
X164647619Y-94670476D01*
X164742857Y-94622857D01*
X164885714Y-94622857D01*
X164980952Y-94670476D01*
X165028571Y-94718095D01*
X165076190Y-94813333D01*
X165076190Y-95194285D01*
X165552380Y-93670476D02*
X165552380Y-94241904D01*
X165552380Y-93956190D02*
X164552380Y-93956190D01*
X164695238Y-94051428D01*
X164790476Y-94146666D01*
X164838095Y-94241904D01*
X165552380Y-92718095D02*
X165552380Y-93289523D01*
X165552380Y-93003809D02*
X164552380Y-93003809D01*
X164695238Y-93099047D01*
X164790476Y-93194285D01*
X164838095Y-93289523D01*
G04 #@! TO.C,R8*
X158583333Y-95872380D02*
X158250000Y-95396190D01*
X158011904Y-95872380D02*
X158011904Y-94872380D01*
X158392857Y-94872380D01*
X158488095Y-94920000D01*
X158535714Y-94967619D01*
X158583333Y-95062857D01*
X158583333Y-95205714D01*
X158535714Y-95300952D01*
X158488095Y-95348571D01*
X158392857Y-95396190D01*
X158011904Y-95396190D01*
X159154761Y-95300952D02*
X159059523Y-95253333D01*
X159011904Y-95205714D01*
X158964285Y-95110476D01*
X158964285Y-95062857D01*
X159011904Y-94967619D01*
X159059523Y-94920000D01*
X159154761Y-94872380D01*
X159345238Y-94872380D01*
X159440476Y-94920000D01*
X159488095Y-94967619D01*
X159535714Y-95062857D01*
X159535714Y-95110476D01*
X159488095Y-95205714D01*
X159440476Y-95253333D01*
X159345238Y-95300952D01*
X159154761Y-95300952D01*
X159059523Y-95348571D01*
X159011904Y-95396190D01*
X158964285Y-95491428D01*
X158964285Y-95681904D01*
X159011904Y-95777142D01*
X159059523Y-95824761D01*
X159154761Y-95872380D01*
X159345238Y-95872380D01*
X159440476Y-95824761D01*
X159488095Y-95777142D01*
X159535714Y-95681904D01*
X159535714Y-95491428D01*
X159488095Y-95396190D01*
X159440476Y-95348571D01*
X159345238Y-95300952D01*
G04 #@! TO.C,R9*
X173172380Y-87796666D02*
X172696190Y-88130000D01*
X173172380Y-88368095D02*
X172172380Y-88368095D01*
X172172380Y-87987142D01*
X172220000Y-87891904D01*
X172267619Y-87844285D01*
X172362857Y-87796666D01*
X172505714Y-87796666D01*
X172600952Y-87844285D01*
X172648571Y-87891904D01*
X172696190Y-87987142D01*
X172696190Y-88368095D01*
X173172380Y-87320476D02*
X173172380Y-87130000D01*
X173124761Y-87034761D01*
X173077142Y-86987142D01*
X172934285Y-86891904D01*
X172743809Y-86844285D01*
X172362857Y-86844285D01*
X172267619Y-86891904D01*
X172220000Y-86939523D01*
X172172380Y-87034761D01*
X172172380Y-87225238D01*
X172220000Y-87320476D01*
X172267619Y-87368095D01*
X172362857Y-87415714D01*
X172600952Y-87415714D01*
X172696190Y-87368095D01*
X172743809Y-87320476D01*
X172791428Y-87225238D01*
X172791428Y-87034761D01*
X172743809Y-86939523D01*
X172696190Y-86891904D01*
X172600952Y-86844285D01*
G04 #@! TO.C,C11*
X135657142Y-102262857D02*
X135704761Y-102310476D01*
X135752380Y-102453333D01*
X135752380Y-102548571D01*
X135704761Y-102691428D01*
X135609523Y-102786666D01*
X135514285Y-102834285D01*
X135323809Y-102881904D01*
X135180952Y-102881904D01*
X134990476Y-102834285D01*
X134895238Y-102786666D01*
X134800000Y-102691428D01*
X134752380Y-102548571D01*
X134752380Y-102453333D01*
X134800000Y-102310476D01*
X134847619Y-102262857D01*
X135752380Y-101310476D02*
X135752380Y-101881904D01*
X135752380Y-101596190D02*
X134752380Y-101596190D01*
X134895238Y-101691428D01*
X134990476Y-101786666D01*
X135038095Y-101881904D01*
X135752380Y-100358095D02*
X135752380Y-100929523D01*
X135752380Y-100643809D02*
X134752380Y-100643809D01*
X134895238Y-100739047D01*
X134990476Y-100834285D01*
X135038095Y-100929523D01*
G04 #@! TO.C,R1*
X135072380Y-113196666D02*
X134596190Y-113530000D01*
X135072380Y-113768095D02*
X134072380Y-113768095D01*
X134072380Y-113387142D01*
X134120000Y-113291904D01*
X134167619Y-113244285D01*
X134262857Y-113196666D01*
X134405714Y-113196666D01*
X134500952Y-113244285D01*
X134548571Y-113291904D01*
X134596190Y-113387142D01*
X134596190Y-113768095D01*
X135072380Y-112244285D02*
X135072380Y-112815714D01*
X135072380Y-112530000D02*
X134072380Y-112530000D01*
X134215238Y-112625238D01*
X134310476Y-112720476D01*
X134358095Y-112815714D01*
G04 #@! TO.C,R13*
X145407142Y-107132380D02*
X145073809Y-106656190D01*
X144835714Y-107132380D02*
X144835714Y-106132380D01*
X145216666Y-106132380D01*
X145311904Y-106180000D01*
X145359523Y-106227619D01*
X145407142Y-106322857D01*
X145407142Y-106465714D01*
X145359523Y-106560952D01*
X145311904Y-106608571D01*
X145216666Y-106656190D01*
X144835714Y-106656190D01*
X146359523Y-107132380D02*
X145788095Y-107132380D01*
X146073809Y-107132380D02*
X146073809Y-106132380D01*
X145978571Y-106275238D01*
X145883333Y-106370476D01*
X145788095Y-106418095D01*
X146692857Y-106132380D02*
X147311904Y-106132380D01*
X146978571Y-106513333D01*
X147121428Y-106513333D01*
X147216666Y-106560952D01*
X147264285Y-106608571D01*
X147311904Y-106703809D01*
X147311904Y-106941904D01*
X147264285Y-107037142D01*
X147216666Y-107084761D01*
X147121428Y-107132380D01*
X146835714Y-107132380D01*
X146740476Y-107084761D01*
X146692857Y-107037142D01*
G04 #@! TO.C,H1*
X105838095Y-121762380D02*
X105838095Y-120762380D01*
X105838095Y-121238571D02*
X106409523Y-121238571D01*
X106409523Y-121762380D02*
X106409523Y-120762380D01*
X107409523Y-121762380D02*
X106838095Y-121762380D01*
X107123809Y-121762380D02*
X107123809Y-120762380D01*
X107028571Y-120905238D01*
X106933333Y-121000476D01*
X106838095Y-121048095D01*
G04 #@! TO.C,H2*
X105838095Y-77762380D02*
X105838095Y-76762380D01*
X105838095Y-77238571D02*
X106409523Y-77238571D01*
X106409523Y-77762380D02*
X106409523Y-76762380D01*
X106838095Y-76857619D02*
X106885714Y-76810000D01*
X106980952Y-76762380D01*
X107219047Y-76762380D01*
X107314285Y-76810000D01*
X107361904Y-76857619D01*
X107409523Y-76952857D01*
X107409523Y-77048095D01*
X107361904Y-77190952D01*
X106790476Y-77762380D01*
X107409523Y-77762380D01*
G04 #@! TO.C,H3*
X187838095Y-82762380D02*
X187838095Y-81762380D01*
X187838095Y-82238571D02*
X188409523Y-82238571D01*
X188409523Y-82762380D02*
X188409523Y-81762380D01*
X188790476Y-81762380D02*
X189409523Y-81762380D01*
X189076190Y-82143333D01*
X189219047Y-82143333D01*
X189314285Y-82190952D01*
X189361904Y-82238571D01*
X189409523Y-82333809D01*
X189409523Y-82571904D01*
X189361904Y-82667142D01*
X189314285Y-82714761D01*
X189219047Y-82762380D01*
X188933333Y-82762380D01*
X188838095Y-82714761D01*
X188790476Y-82667142D01*
G04 #@! TO.C,H4*
X187838095Y-121762380D02*
X187838095Y-120762380D01*
X187838095Y-121238571D02*
X188409523Y-121238571D01*
X188409523Y-121762380D02*
X188409523Y-120762380D01*
X189314285Y-121095714D02*
X189314285Y-121762380D01*
X189076190Y-120714761D02*
X188838095Y-121429047D01*
X189457142Y-121429047D01*
G04 #@! TO.C,R3*
X116673333Y-86642380D02*
X116340000Y-86166190D01*
X116101904Y-86642380D02*
X116101904Y-85642380D01*
X116482857Y-85642380D01*
X116578095Y-85690000D01*
X116625714Y-85737619D01*
X116673333Y-85832857D01*
X116673333Y-85975714D01*
X116625714Y-86070952D01*
X116578095Y-86118571D01*
X116482857Y-86166190D01*
X116101904Y-86166190D01*
X117006666Y-85642380D02*
X117625714Y-85642380D01*
X117292380Y-86023333D01*
X117435238Y-86023333D01*
X117530476Y-86070952D01*
X117578095Y-86118571D01*
X117625714Y-86213809D01*
X117625714Y-86451904D01*
X117578095Y-86547142D01*
X117530476Y-86594761D01*
X117435238Y-86642380D01*
X117149523Y-86642380D01*
X117054285Y-86594761D01*
X117006666Y-86547142D01*
G04 #@! TD*
M02*
