M48
;DRILL file {KiCad 5.0.2+dfsg1-1} date пт, 04-вер-2020 22:55:12 +0300
;FORMAT={-:-/ absolute / metric / decimal}
FMAT,2
METRIC,TZ
T1C0.710
T2C0.750
T3C0.760
T4C0.800
T5C1.000
T6C1.100
T7C1.200
T8C1.850
%
G90
G05
T1
X177.8Y-118.11
X177.8Y-123.19
X180.34Y-120.65
X157.48Y-118.11
X157.48Y-123.19
X160.02Y-120.65
T2
X130.81Y-105.41
X130.81Y-106.68
X130.81Y-107.95
X119.38Y-114.3
X119.38Y-115.57
X119.38Y-116.84
X124.46Y-123.19
X125.73Y-123.19
X127.Y-123.19
X130.81Y-82.55
X130.81Y-83.82
X130.81Y-85.09
X170.18Y-113.03
X171.45Y-113.03
X172.72Y-113.03
T3
X156.05Y-104.14
X156.05Y-106.68
X156.05Y-109.22
X156.05Y-111.76
X163.99Y-104.14
X163.99Y-106.68
X163.99Y-109.22
X163.99Y-111.76
X180.02Y-97.79
X180.02Y-100.33
X180.02Y-102.87
X180.02Y-105.41
X187.96Y-97.79
X187.96Y-100.33
X187.96Y-102.87
X187.96Y-105.41
T4
X137.16Y-88.9
X147.32Y-88.9
X175.26Y-83.82
X175.26Y-91.44
X133.43Y-123.19
X138.43Y-123.19
X180.34Y-83.82
X180.34Y-91.44
X177.8Y-111.76
X187.96Y-111.76
X170.18Y-106.68
X175.18Y-106.68
X139.7Y-93.98
X149.86Y-93.98
X167.64Y-88.9
X167.64Y-99.06
X107.99Y-115.57
X110.49Y-115.57
X113.03Y-83.82
X120.65Y-83.82
X167.64Y-121.92
X170.14Y-121.92
X152.4Y-87.63
X154.9Y-87.63
X113.11Y-123.19
X118.11Y-123.19
X139.7Y-100.37
X139.7Y-102.87
X154.94Y-97.79
X162.56Y-97.79
X137.16Y-109.22
X137.16Y-116.84
X173.99Y-95.25
X173.99Y-100.25
X127.Y-115.57
X129.5Y-115.57
X142.24Y-109.22
X149.86Y-109.22
X148.59Y-100.37
X148.59Y-102.87
X137.16Y-83.82
X147.32Y-83.82
T5
X139.7Y-76.2
X142.24Y-76.2
X144.78Y-76.2
X129.54Y-92.71
X129.54Y-97.71
T6
X147.32Y-116.84
X147.32Y-119.38
X147.32Y-121.92
X163.83Y-76.2
X166.37Y-76.2
X168.91Y-76.2
X115.57Y-76.2
X118.11Y-76.2
X120.65Y-76.2
T7
X105.41Y-90.17
X120.65Y-90.17
X198.12Y-83.82
X198.12Y-124.46
X161.29Y-82.55
X161.29Y-92.71
T8
X182.88Y-76.2
X188.38Y-76.2
X115.57Y-101.21
X115.57Y-105.41
X121.07Y-101.21
X121.07Y-105.41
T0
M30
